<svg xmlns="http://www.w3.org/2000/svg" width="24" height="24" viewBox="0 0 24 24"><defs><style>.a{opacity:0;}.b{fill:#cf803c;}</style></defs><g transform="translate(118 -153)"><rect class="a" width="24" height="24" transform="translate(-118 153)"/><path class="b" d="M-104.5,175h-10a.5.5,0,0,0-.5.5.5.5,0,0,0,.5.5h10a.5.5,0,0,0,.5-.5A.5.5,0,0,0-104.5,175Z"/><path class="b" d="M-96.324,166.259l-7.361-4.25,1.5-2.6a2,2,0,0,0-.732-2.732l-3.464-2a2.008,2.008,0,0,0-1-.268,2.006,2.006,0,0,0-1.733,1l-6,10.392a2,2,0,0,0,.732,2.732l3.464,2a2,2,0,0,0,1,.269,2.007,2.007,0,0,0,1.733-1l1.5-2.6,7.361,4.25a2,2,0,0,0,1,.268,2.006,2.006,0,0,0,1.733-1l1-1.732A2,2,0,0,0-96.324,166.259Zm-.134,2.232-1,1.732a1,1,0,0,1-.867.5.992.992,0,0,1-.5-.134l-7.361-4.25a1,1,0,0,0-.5-.134,1,1,0,0,0-.867.5l-1.5,2.6a1,1,0,0,1-.867.5.993.993,0,0,1-.5-.135l-3.464-2a1,1,0,0,1-.366-1.366l6-10.392a1,1,0,0,1,.867-.5,1,1,0,0,1,.5.134l3.464,2a1,1,0,0,1,.366,1.366l-1.5,2.6a1,1,0,0,0,.366,1.366l7.361,4.25A1,1,0,0,1-96.458,168.491Z"/><path class="b" d="M-108.248,155.911l-6,10.392a1,1,0,0,0,.366,1.366l3.464,2a1,1,0,0,0,1.366-.366l1.5-2.6a1,1,0,0,1,1.366-.366l7.361,4.25a1,1,0,0,0,1.366-.366l1-1.732a1,1,0,0,0-.366-1.366l-7.361-4.25a1,1,0,0,1-.366-1.366l1.5-2.6a1,1,0,0,0-.366-1.366l-3.464-2A1,1,0,0,0-108.248,155.911Z"/></g></svg>