<svg width="24" height="24" viewBox="0 0 24 24" fill="none" xmlns="http://www.w3.org/2000/svg">
<g id="Frame">
<path id="Vector" d="M8.28031 19.7799C8.69492 19.7799 9.09255 19.9495 9.38572 20.2514C9.6789 20.5534 9.8436 20.9629 9.8436 21.3899C9.8436 21.8169 9.6789 22.2265 9.38572 22.5284C9.09255 22.8304 8.69492 23 8.28031 23C7.8657 23 7.46807 22.8304 7.1749 22.5284C6.88172 22.2265 6.71702 21.8169 6.71702 21.3899C6.71702 20.9629 6.88172 20.5534 7.1749 20.2514C7.46807 19.9495 7.8657 19.7799 8.28031 19.7799ZM19.2233 19.7799C19.6379 19.7799 20.0356 19.9495 20.3288 20.2514C20.6219 20.5534 20.7866 20.9629 20.7866 21.3899C20.7866 21.8169 20.6219 22.2265 20.3288 22.5284C20.0356 22.8304 19.6379 23 19.2233 23C18.8087 23 18.4111 22.8304 18.1179 22.5284C17.8248 22.2265 17.66 21.8169 17.66 21.3899C17.66 20.9629 17.8248 20.5534 18.1179 20.2514C18.4111 19.9495 18.8087 19.7799 19.2233 19.7799ZM2.27832 1.02738L2.35649 1.05099L2.7447 1.18409C3.2569 1.35989 3.71617 1.6693 4.07779 2.08219C4.43942 2.49507 4.69107 2.99737 4.80824 3.54016L4.83482 3.67863L21.9153 3.67916C22.2221 3.67912 22.5251 3.74882 22.8027 3.88329C23.0803 4.01776 23.3257 4.21369 23.5213 4.45709C23.7169 4.70049 23.858 4.98536 23.9343 5.29137C24.0107 5.59738 24.0206 5.91698 23.9632 6.22737L22.6725 13.2043C22.5818 13.6952 22.3276 14.1381 21.9539 14.4567C21.5802 14.7752 21.1102 14.9496 20.6251 14.9497H6.78893L6.91504 15.6753C6.95553 15.9088 7.06999 16.1219 7.24054 16.2813C7.41109 16.4408 7.62811 16.5375 7.8577 16.5565L7.94108 16.5597H21.3077C21.5782 16.5585 21.8385 16.6656 22.0337 16.8583C22.2289 17.0511 22.3437 17.3145 22.3538 17.5928C22.364 17.8712 22.2687 18.1427 22.0881 18.35C21.9074 18.5573 21.6557 18.6842 21.3859 18.7038L21.3077 18.7065H7.94108C7.22868 18.7065 6.53763 18.456 5.98232 17.9965C5.42701 17.5369 5.04073 16.8957 4.88745 16.1792L4.86296 16.0525L2.78274 4.04948C2.75238 3.8745 2.6803 3.71003 2.57298 3.57083C2.46565 3.43163 2.32644 3.32206 2.16785 3.25196L2.08656 3.21976L1.69834 3.08666C1.44658 2.99603 1.23813 2.80945 1.1159 2.56532C0.993669 2.32118 0.966965 2.03808 1.04128 1.77428C1.1156 1.51048 1.28528 1.28606 1.5154 1.14722C1.74552 1.00838 2.01856 0.965682 2.27832 1.02792V1.02738Z" fill="#03842E"/>
</g>
</svg>
