<svg xmlns="http://www.w3.org/2000/svg" width="20" height="20" viewBox="0 0 20 20"><defs><style>.a{opacity:0;}.b,.c{fill:#2263E8;}.c{opacity:0.2;}</style></defs><g transform="translate(5 -121)"><rect class="a" width="20" height="20" transform="translate(-5 121)"/><circle class="b" cx="2" cy="2" r="2" transform="translate(8 134)"/><circle class="b" cx="2" cy="2" r="2" transform="translate(-1 134)"/><path class="b" d="M5,130v-5.719a1,1,0,0,0-1.243-.97l-6,1.5a1,1,0,0,0-.758.97V135h1.184A2.99,2.99,0,0,1,1,133a2.99,2.99,0,0,1,2.816,2H7.184a2.982,2.982,0,0,1,5.632,0H14v-5Zm-1.6-1H-1.5v-3H3.4Z" transform="translate(-1)"/><path class="c" d="M6.769,130l4.115-4.115L14,129l-1,1Z" transform="translate(-1)"/></g></svg>