<svg xmlns="http://www.w3.org/2000/svg" width="20" height="20" viewBox="0 0 20 20"><defs><style>.a{fill:#efefef;opacity:0;}.b,.c{fill:#fff;}.b{opacity:0.2;}</style></defs><g transform="translate(-14 -147)"><rect class="a" width="20" height="20" transform="translate(14 147)"/><path class="b" d="M22.561,175.406a2.286,2.286,0,0,0-1.2-1.692c-.342-.183-.688-.383-1.029-.6a2.422,2.422,0,0,0-1.282-.365,2.531,2.531,0,0,0-1.591.571,2.768,2.768,0,0,1-.775.154.682.682,0,0,1-.1-.006,23.542,23.542,0,0,1-3.533-3.533,2.314,2.314,0,0,1,.147-.871,2.461,2.461,0,0,0,.208-2.877c-.212-.341-.412-.687-.6-1.028a2.3,2.3,0,0,0-2.024-1.219,2.253,2.253,0,0,0-1.6.667l-1.97,1.97a2.99,2.99,0,0,0-.552,3.5,21.3,21.3,0,0,0,1.464,2.415,25.388,25.388,0,0,0,5.9,5.9,21.386,21.386,0,0,0,2.424,1.47,2.81,2.81,0,0,0,1.3.32,3.5,3.5,0,0,0,2.49-1.164l1.681-1.681A2.242,2.242,0,0,0,22.561,175.406Z" transform="translate(10.667 -13.945)"/><path class="c" d="M31.561,161.406a2.286,2.286,0,0,0-1.2-1.692c-.342-.183-.688-.383-1.029-.6a2.422,2.422,0,0,0-1.282-.365,2.531,2.531,0,0,0-1.591.571,2.768,2.768,0,0,1-.775.154.682.682,0,0,1-.1-.006,23.542,23.542,0,0,1-3.533-3.533,2.344,2.344,0,0,1,.146-.871,2.46,2.46,0,0,0,.209-2.877c-.212-.341-.412-.687-.595-1.028a2.3,2.3,0,0,0-2.024-1.219,2.253,2.253,0,0,0-1.6.667l-1.97,1.97a2.99,2.99,0,0,0-.552,3.5,21.3,21.3,0,0,0,1.464,2.415,25.388,25.388,0,0,0,5.895,5.9,21.327,21.327,0,0,0,2.424,1.47,2.81,2.81,0,0,0,1.3.32,3.5,3.5,0,0,0,2.49-1.164l1.681-1.681A2.242,2.242,0,0,0,31.561,161.406Zm-1.348,1.224-1.681,1.681a2.567,2.567,0,0,1-1.783.871,1.823,1.823,0,0,1-.841-.208,20.41,20.41,0,0,1-2.3-1.4,24.414,24.414,0,0,1-5.657-5.656,20.35,20.35,0,0,1-1.4-2.3,2,2,0,0,1,.371-2.332l1.969-1.97a1.261,1.261,0,0,1,.9-.374,1.3,1.3,0,0,1,1.143.691q.29.541.627,1.084a1.483,1.483,0,0,1-.23,1.822s-.569,1.385-.088,1.983A24.349,24.349,0,0,0,25,160.286a1.084,1.084,0,0,0,.685.193,4.05,4.05,0,0,0,1.3-.28,1.511,1.511,0,0,1,1.067-.445,1.422,1.422,0,0,1,.754.214q.543.337,1.084.627A1.277,1.277,0,0,1,30.213,162.63Z" transform="translate(-0.333 0.055)"/><path class="c" d="M24.5,152c.1,0,2.5.04,2.5,3.5a.5.5,0,0,0,1,0c0-4.449-3.465-4.5-3.5-4.5a.5.5,0,0,0,0,1Z"/><path class="c" d="M25.5,149c.183,0,4.5.09,4.5,5.5a.5.5,0,0,0,1,0c0-6.426-5.445-6.5-5.5-6.5a.5.5,0,0,0,0,1Z"/></g></svg>