<svg width="24" height="25" viewBox="0 0 24 25" fill="none" xmlns="http://www.w3.org/2000/svg">
<g id="&#229;&#174;&#152;&#230;&#150;&#185;&#229;&#174;&#162;&#230;&#156;&#141;icon">
<path id="Vector" fill-rule="evenodd" clip-rule="evenodd" d="M21.131 16.606C19.534 19.853 16.935 21.94 13.8 22.525C13.339 23.158 12.581 23.524 11.782 23.499C10.526 23.499 9.506 22.692 9.506 21.681C9.506 20.671 10.526 19.863 11.782 19.863C12.592 19.836 13.36 20.213 13.815 20.863C16.159 20.318 18.131 18.736 19.44 16.319C18.225 15.643 17.381 14.003 17.381 12.04C17.381 9.869 18.405 8.102 19.83 7.586C18.375 4.823 15.454 3.099 12 3.099C8.546 3.099 5.625 4.823 4.17 7.586C5.595 8.102 6.618 9.858 6.618 12.04C6.618 14.625 5.16 16.65 3.307 16.65C1.455 16.65 0 14.625 0 12.04C0 9.942 0.971 8.186 2.34 7.622C3.892 3.874 7.597 1.5 12 1.5C16.402 1.5 20.107 3.874 21.66 7.622C23.029 8.186 24 9.924 24 12.04C24 14.417 22.77 16.315 21.131 16.606ZM3.307 9.026C2.524 9.026 1.65 10.265 1.65 12.04C1.65 13.814 2.524 15.05 3.307 15.05C4.091 15.05 4.965 13.814 4.965 12.04C4.965 10.265 4.091 9.026 3.307 9.026ZM20.692 9.026C19.909 9.026 19.035 10.265 19.035 12.04C19.035 13.814 19.909 15.05 20.692 15.05C21.476 15.05 22.35 13.814 22.35 12.04C22.35 10.265 21.476 9.026 20.692 9.026ZM9.187 14.895C9.483 14.894 9.756 15.046 9.904 15.293C10.297 15.954 11.024 16.361 11.81 16.361C12.597 16.361 13.324 15.954 13.717 15.293C13.946 14.911 14.452 14.781 14.846 15.003C15.241 15.225 15.375 15.714 15.146 16.097C14.457 17.251 13.186 17.961 11.81 17.961C10.435 17.961 9.164 17.251 8.475 16.097C8.327 15.85 8.326 15.544 8.473 15.296C8.62 15.048 8.892 14.895 9.187 14.895Z" fill="#03842E"/>
</g>
</svg>
