<svg xmlns="http://www.w3.org/2000/svg" width="20" height="20" viewBox="0 0 20 20"><defs><style>.a,.c{fill:#2263e8;}.a{opacity:0.2;}.b{opacity:0;}</style></defs><g transform="translate(-1134 -516)"><rect class="a" width="20" height="20" rx="2" transform="translate(1134 516)"/><g transform="translate(1088 418)"><rect class="b" width="16" height="16" transform="translate(48 100)"/><path class="c" d="M57.369,110.4a10.941,10.941,0,0,1-1.159-.058.54.54,0,1,1,.119-1.074c1.348.148,3.416.02,3.777-.731a.541.541,0,0,1,.975.469c-.574,1.185-2.452,1.394-3.712,1.394Zm0,0"/><path class="c" d="M62.228,109.858a.54.54,0,0,1-.541-.542V107.45l-.725-.259a.543.543,0,0,1-.361-.51,4.875,4.875,0,0,0-9.749,0,.542.542,0,0,1-.227.44l-.315.224v1.968a.542.542,0,1,1-1.083,0v-2.248a.541.541,0,0,1,.227-.439l.321-.23a5.96,5.96,0,0,1,11.9-.1l.737.262a.542.542,0,0,1,.361.509v2.248a.546.546,0,0,1-.545.542Zm0,0"/><path class="c" d="M57.893,112.292v-.163A3.278,3.278,0,0,0,58.97,110.9a9.528,9.528,0,0,1-1.485.05c-.542,0-1.005.014-1.287-.018a1.138,1.138,0,0,1-.958-1.249,1.085,1.085,0,0,1,1.2-.958,7.715,7.715,0,0,0,3.069-.236c.023-.5.017-1.016.017-1.412a3.46,3.46,0,0,0-3.669-3.742h-.329a3.429,3.429,0,0,0-3.613,3.76c0,1.432.023,3.77,1.648,5.04v.163c-2.166.338-3.826,1.229-3.826,2.4a.582.582,0,0,0,.55.58H60.915a.7.7,0,0,0,.676-.58c0-1.179-1.529-2.067-3.7-2.408Zm0,0"/></g></g></svg>