<svg xmlns="http://www.w3.org/2000/svg" width="20" height="20" viewBox="0 0 20 20"><defs><style>.a{opacity:0;}.b,.c{fill:#fff;}.b{opacity:0.2;}</style></defs><g transform="translate(37 -147)"><rect class="a" width="20" height="20" transform="translate(-37 147)"/><rect class="b" width="12" height="18" rx="2" transform="translate(-31 148)"/><path class="c" d="M-23.5,149a1,1,0,0,1,1,1v14a1,1,0,0,1-1,1h-8a1,1,0,0,1-1-1V150a1,1,0,0,1,1-1h8m0-1h-8a2,2,0,0,0-2,2v14a2,2,0,0,0,2,2h8a2,2,0,0,0,2-2V150a2,2,0,0,0-2-2Z" transform="translate(0.5)"/><path class="c" d="M-25,163.5h-5a.5.5,0,0,1-.5-.5.5.5,0,0,1,.5-.5h5a.5.5,0,0,1,.5.5A.5.5,0,0,1-25,163.5Z" transform="translate(0.5)"/></g></svg>