<svg xmlns="http://www.w3.org/2000/svg" width="16" height="16" viewBox="0 0 16 16"><defs><style>.a,.b{fill:#fff;}.a{opacity:0;}</style></defs><g transform="translate(-38 -154)"><rect class="a" width="16" height="16" transform="translate(38 154)"/><g transform="translate(40.4 155.349)"><path class="b" d="M51,172H41.4a.4.4,0,0,0,0,.8H51a.4.4,0,0,0,0-.8Z" transform="translate(-41 -158.949)"/><path class="b" d="M51.982,158.418l-2.263-2.263a1.6,1.6,0,0,0-2.262,0l-5.519,5.52A3.177,3.177,0,0,0,41,163.937v3.2h3.2a3.177,3.177,0,0,0,2.262-.938l5.52-5.519A1.6,1.6,0,0,0,51.982,158.418ZM51.2,160.9a.4.4,0,0,1-.566,0L47.239,157.5a.4.4,0,0,1,.566-.566l3.394,3.394A.4.4,0,0,1,51.2,160.9Z" transform="translate(-41 -155.686)"/></g></g></svg>