<svg width="24" height="24" viewBox="0 0 24 24" fill="none" xmlns="http://www.w3.org/2000/svg">
<g id="Frame" clip-path="url(#clip0_993_5292)">
<path id="Vector" d="M18.8939 22.389H7.20589C5.93389 22.389 4.88989 21.459 4.88989 20.304V6.252C4.88989 5.097 5.92339 4.1655 7.20589 4.1655H18.8849C20.1569 4.1655 21.2009 5.094 21.2009 6.2505V16.4205L23.5289 17.4885L23.5604 17.5005C23.8319 17.6505 23.9954 17.9265 24.0014 18.2115C24.0015 18.3587 23.9634 18.5034 23.8908 18.6314C23.8183 18.7594 23.7137 18.8665 23.5874 18.942L23.5229 18.972L21.1949 20.1045V20.31C21.2039 21.459 20.1659 22.3875 18.8939 22.3875V22.389ZM15.3119 12.0345L14.9114 12.051L15.8699 10.446C15.9689 10.296 16.0019 10.161 16.0019 10.0185C16.0019 9.9015 15.8924 9.7575 15.6959 9.6345C15.6464 9.609 15.5849 9.5715 15.4814 9.5595C15.3929 9.5295 15.2999 9.5295 15.1964 9.5295C15.0916 9.52535 14.9873 9.5459 14.8919 9.5895C14.7936 9.6298 14.711 9.70084 14.6564 9.792L13.3769 12.042H12.4949L11.1764 9.729C11.0954 9.5745 10.9454 9.4995 10.7594 9.4995C10.5728 9.49988 10.3896 9.54955 10.2284 9.6435C10.1553 9.68221 10.0917 9.73679 10.0424 9.80323C9.9931 9.86967 9.95927 9.94629 9.94339 10.0275C9.92298 10.1034 9.91817 10.1827 9.92926 10.2606C9.94034 10.3385 9.96709 10.4133 10.0079 10.4805L10.9769 12.0555H10.5344C10.2689 12.0555 10.0844 12.1005 9.96439 12.2115C9.84439 12.3165 9.77989 12.4635 9.77989 12.681C9.77989 12.885 9.82939 13.041 9.93139 13.152C10.0409 13.257 10.2374 13.3065 10.5224 13.3065H12.1574V14.2215H11.1239C10.8599 14.2215 10.6739 14.2635 10.5539 14.376C10.4339 14.481 10.3694 14.628 10.3694 14.8455C10.3694 15.0495 10.4189 15.204 10.5224 15.3165C10.6304 15.4215 10.8269 15.471 11.1119 15.471H12.1469V16.929C12.1579 17.0756 12.2238 17.2127 12.3314 17.313C12.4514 17.4375 12.6479 17.5005 12.9329 17.5005C13.2179 17.5005 13.4144 17.4375 13.5344 17.313C13.5915 17.2641 13.6376 17.2037 13.6696 17.1357C13.7017 17.0677 13.719 16.9937 13.7204 16.9185V15.459H14.8679C15.0329 15.459 15.1649 15.4155 15.2669 15.3045C15.3704 15.1995 15.4199 15.0525 15.4199 14.835C15.4199 14.421 15.2099 14.205 14.8304 14.205H13.7084V13.29H15.3494C15.5144 13.29 15.6464 13.2405 15.7484 13.134C15.8519 13.029 15.9014 12.882 15.9014 12.6645C15.9014 12.252 15.6914 12.0345 15.3119 12.0345Z" fill="#FF4023"/>
<path id="Vector_2" d="M6.37346 20.157H4.64246C3.35246 20.157 2.32496 19.188 2.32496 17.997V17.7435L0.434965 16.6095C0.304685 16.536 0.196037 16.4296 0.119941 16.3008C0.0438459 16.1721 0.0029847 16.0256 0.00146484 15.876C0.00430987 15.725 0.048268 15.5776 0.128613 15.4497C0.208958 15.3217 0.32265 15.2181 0.457465 15.15L2.32196 14.085V3.645C2.32196 2.466 3.35696 1.515 4.64546 1.515H16.4205C17.6805 1.515 18.6405 2.4525 18.6405 3.645V4.8H16.9725V3.645C16.9725 3.333 16.7475 3.117 16.419 3.117H4.63946C4.28846 3.117 3.99146 3.3525 3.99146 3.645V14.976L2.38946 15.891L3.99446 16.866V17.994C3.99446 18.294 4.30046 18.5565 4.64246 18.5565H6.38546L6.37346 20.157Z" fill="#FF4023"/>
</g>
<defs>
<clipPath id="clip0_993_5292">
<rect width="24" height="24" fill="white"/>
</clipPath>
</defs>
</svg>
