<svg xmlns="http://www.w3.org/2000/svg" width="20" height="20" viewBox="0 0 20 20"><defs><style>.a,.b{fill:#cf803c;}.a{opacity:0;}</style></defs><g transform="translate(-10 -121)"><rect class="a" width="20" height="20" transform="translate(10 121)"/><path class="b" d="M24,138.75H16a.5.5,0,0,0,0,1h8a.5.5,0,0,0,0-1Z"/><path class="b" d="M19.384,138.038l.616.481.616-.481c.653-.51,6.384-5.093,6.384-8.788a7,7,0,0,0-14,0C13,132.945,18.731,137.528,19.384,138.038ZM20,123.25a6,6,0,0,1,6,6c0,3.314-6,8-6,8s-6-4.686-6-8A6,6,0,0,1,20,123.25Z"/><path class="b" d="M24,129.25a4,4,0,1,0-4,4A4,4,0,0,0,24,129.25Zm-7,0a3,3,0,1,1,3,3A3,3,0,0,1,17,129.25Z"/></g></svg>