<svg xmlns="http://www.w3.org/2000/svg" width="20" height="20" viewBox="0 0 20 20"><defs><style>.a{opacity:0;}.b{fill:#4186fa;}</style></defs><g transform="translate(-67 -179)"><rect class="a" width="20" height="20" transform="translate(67 179)"/><path class="b" d="M77,180.5a6,6,0,0,0-6,6c0,3.314,6,8,6,8s6-4.686,6-8A6,6,0,0,0,77,180.5Zm0,9a3,3,0,1,1,3-3A3,3,0,0,1,77,189.5Z"/><path class="b" d="M81.678,191.364c-.255.308-.517.6-.781.89,2.447.342,4.1.995,4.1,1.746,0,1.1-3.582,2-8,2s-8-.9-8-2c0-.751,1.656-1.4,4.1-1.746-.264-.286-.526-.582-.781-.89C70.115,191.736,68,192.484,68,194c0,2.855,7.5,3,9,3s9-.145,9-3C86,192.484,83.885,191.736,81.678,191.364Z"/></g></svg>