<svg width="20" height="21" viewBox="0 0 20 21" fill="none" xmlns="http://www.w3.org/2000/svg">
<g id="Frame">
<path id="Vector" d="M10.0001 1.57141C5.07153 1.57141 1.07153 5.57141 1.07153 10.5C1.07153 15.4286 5.07153 19.4286 10.0001 19.4286C14.9287 19.4286 18.9287 15.4286 18.9287 10.5C18.9287 5.57141 14.9287 1.57141 10.0001 1.57141ZM10.0001 18C5.85725 18 2.5001 14.6428 2.5001 10.5C2.5001 6.35713 5.85725 2.99998 10.0001 2.99998C14.143 2.99998 17.5001 6.35713 17.5001 10.5C17.5001 14.6428 14.143 18 10.0001 18Z" fill="#999999"/>
<path id="Vector_2" d="M9.07153 5.60712L8.07153 6.60712L11.8572 10.3928L8.07153 14.1785L9.07153 15.1785L13.3572 10.8928C13.643 10.6071 13.643 10.1785 13.3572 9.89283L9.07153 5.60712Z" fill="#999999"/>
</g>
</svg>
