<svg xmlns="http://www.w3.org/2000/svg" width="32" height="32" viewBox="0 0 32 32"><defs><style>.a{opacity:0;}.b,.c{fill:#2263E8;}.c{opacity:0.2;}</style></defs><g transform="translate(154 -253)"><rect class="a" width="32" height="32" transform="translate(-154 253)"/><circle class="b" cx="7" cy="7" r="7" transform="translate(-153 254)"/><rect class="b" width="14" height="14" rx="7" transform="translate(-153 270)"/><path class="c" d="M-136,259h12a1,1,0,0,0,1-1,1,1,0,0,0-1-1h-12a1,1,0,0,0-1,1A1,1,0,0,0-136,259Z"/><path class="b" d="M-124,263h-12a1,1,0,0,0-1,1,1,1,0,0,0,1,1h12a1,1,0,0,0,1-1A1,1,0,0,0-124,263Z"/><path class="c" d="M-124,273h-12a1,1,0,0,0-1,1,1,1,0,0,0,1,1h12a1,1,0,0,0,1-1A1,1,0,0,0-124,273Z"/><path class="b" d="M-124,279h-12a1,1,0,0,0-1,1,1,1,0,0,0,1,1h12a1,1,0,0,0,1-1A1,1,0,0,0-124,279Z"/></g></svg>