<svg xmlns="http://www.w3.org/2000/svg" width="20" height="20" viewBox="0 0 20 20"><defs><style>.a{opacity:0;}.b{fill:#cf803c;}</style></defs><g transform="translate(-109 -121)"><rect class="a" width="20" height="20" transform="translate(109 121)"/><path class="b" d="M124.5,139h-12a.5.5,0,0,0,0,1h12a.5.5,0,0,0,0-1Z"/><path class="b" d="M124.5,126.5h-5v-1a2,2,0,0,0-2-2h-4a2,2,0,0,0-2,2v10a2,2,0,0,0,2,2h4a2,2,0,0,0,2-2v-1h5a2,2,0,0,0,2-2v-4A2,2,0,0,0,124.5,126.5Zm-6,9a1,1,0,0,1-1,1h-4a1,1,0,0,1-1-1v-10a1,1,0,0,1,1-1h4a1,1,0,0,1,1,1Zm7-3a1,1,0,0,1-1,1h-5v-6h5a1,1,0,0,1,1,1Z"/></g></svg>