<svg xmlns="http://www.w3.org/2000/svg" width="20" height="20" viewBox="0 0 20 20"><defs><style>.a,.b{fill:#cf803c;}.a{opacity:0;}</style></defs><g transform="translate(-162 -121)"><rect class="a" width="20" height="20" transform="translate(162 121)"/><path class="b" d="M173,130h-6a.5.5,0,0,1,0-1h6a.5.5,0,0,1,0,1Z"/><path class="b" d="M179.5,135H167a.5.5,0,0,1,0-1h12.5a.5.5,0,0,1,0,1Z"/><path class="b" d="M178.145,136.888a.5.5,0,0,1-.353-.854l1.646-1.646-1.646-1.647a.5.5,0,1,1,.707-.707l2.353,2.354-2.353,2.353A.5.5,0,0,1,178.145,136.888Z"/><path class="b" d="M179,124.5H165a2,2,0,0,0-2,2v10a2,2,0,0,0,2,2h9.5a.5.5,0,0,0,0-1H165a1,1,0,0,1-1-1v-10a1,1,0,0,1,1-1h14a1,1,0,0,1,1,1V132a.5.5,0,0,0,1,0v-5.5A2,2,0,0,0,179,124.5Z"/></g></svg>