<svg xmlns="http://www.w3.org/2000/svg" width="20" height="20" viewBox="0 0 20 20"><defs><style>.a{opacity:0;}.b{fill:#fff;}</style></defs><g transform="translate(201 -121)"><rect class="a" width="20" height="20" transform="translate(-201 121)"/><path class="b" d="M-189.782,135.526a4.945,4.945,0,0,1,3.207-3.277,5.1,5.1,0,0,1,2.049-.226.492.492,0,0,0,.526-.5V124a2,2,0,0,0-2-2h-10a2,2,0,0,0-2,2v14a2,2,0,0,0,2,2h6.123a.5.5,0,0,0,.435-.735A4.938,4.938,0,0,1-189.782,135.526ZM-195.625,126h4a.5.5,0,0,1,.5.5.5.5,0,0,1-.5.5h-4a.5.5,0,0,1-.5-.5A.5.5,0,0,1-195.625,126Zm-.5,3.5a.5.5,0,0,1,.5-.5h8a.5.5,0,0,1,.5.5.5.5,0,0,1-.5.5h-8A.5.5,0,0,1-196.125,129.5Z"/><path class="b" d="M-186.922,134h3.735a.1.1,0,0,1,.083.155l-1.792,2.69a.1.1,0,0,0,.083.155h2.572a.1.1,0,0,1,.07.171L-185,140l.928-1.855a.1.1,0,0,0-.09-.145h-3.71a.1.1,0,0,1-.1-.124l.95-3.8A.1.1,0,0,1-186.922,134Z"/></g></svg>