<svg xmlns="http://www.w3.org/2000/svg" width="32" height="32" viewBox="0 0 32 32"><defs><style>.a{opacity:0;}.b,.c{fill:#2263E8;}.c{opacity:0.2;}.d{fill:#fff;}</style></defs><g transform="translate(117 -253)"><rect class="a" width="32" height="32" transform="translate(-117 253)"/><circle class="b" cx="7" cy="7" r="7" transform="translate(-108.282 255.436)"/><path class="b" d="M9.154,0h5.692A9.154,9.154,0,0,1,24,9.154V14a0,0,0,0,1,0,0H0a0,0,0,0,1,0,0V9.154A9.154,9.154,0,0,1,9.154,0Z" transform="translate(-113 270)"/><path class="c" d="M-93.117,260.133c-.81-2.928-4.158-5.123-8.165-5.123s-7.355,2.195-8.166,5.123c-.619.34-1.116.83-1.116,1.374v1.857c0,1.025,1.759,1.856,2.784,1.856v-3.712c0-2.563,2.909-4.641,6.5-4.641s6.5,2.078,6.5,4.641v1.856a4.642,4.642,0,0,1-3.01,4.346,1.39,1.39,0,0,0-1.167-.633h-1.856a1.393,1.393,0,0,0-1.393,1.392,1.393,1.393,0,0,0,1.393,1.393h1.856a1.4,1.4,0,0,0,.391-.056,6.5,6.5,0,0,0,5.5-5.094A1.776,1.776,0,0,0-92,263.365v-1.857c0-.545-.5-1.035-1.117-1.375Zm0,0" transform="translate(0 -1)"/><path class="d" d="M-101,269.436-103,275l2,2,2-2Z" transform="translate(0 0.564)"/></g></svg>