<svg xmlns="http://www.w3.org/2000/svg" width="20" height="20" viewBox="0 0 20 20"><defs><style>.a{fill:#efefef;opacity:0;}.b{fill:#fff;opacity:0.2;}.c,.d,.f{fill:none;}.c,.d{stroke:#fff;}.d{stroke-linecap:round;}.e{stroke:none;}</style></defs><g transform="translate(-1879 -671)"><rect class="a" width="20" height="20" transform="translate(1879 671)"/><circle class="b" cx="5" cy="5" r="5" transform="translate(1886 672)"/><g class="c" transform="translate(1884 672)"><circle class="e" cx="5" cy="5" r="5"/><circle class="f" cx="5" cy="5" r="4.5"/></g><path class="b" d="M2,0H14a2,2,0,0,1,2,2V7a0,0,0,0,1,0,0H0A0,0,0,0,1,0,7V2A2,2,0,0,1,2,0Z" transform="translate(1883 683)"/><g class="c" transform="translate(1881 683)"><path class="e" d="M2,0H14a2,2,0,0,1,2,2V7a0,0,0,0,1,0,0H0A0,0,0,0,1,0,7V2A2,2,0,0,1,2,0Z"/><path class="f" d="M2,.5H14A1.5,1.5,0,0,1,15.5,2V6a.5.5,0,0,1-.5.5H1A.5.5,0,0,1,.5,6V2A1.5,1.5,0,0,1,2,.5Z"/></g><path class="d" d="M1959.917,708.667c2.467,1.4,6.4.6,7.533,0" transform="translate(-74.417 -23)"/></g></svg>