<svg width="24" height="25" viewBox="0 0 24 25" fill="none" xmlns="http://www.w3.org/2000/svg">
<g id="&#229;&#174;&#152;&#230;&#150;&#185;&#229;&#174;&#162;&#230;&#156;&#141;icon" clip-path="url(#clip0_993_5334)">
<path id="Vector" d="M12.0134 14.4086C11.0775 14.4087 10.1507 14.2289 9.28602 13.8794C8.42133 13.5299 7.63565 13.0177 6.97383 12.3719C6.31202 11.7261 5.78704 10.9595 5.42887 10.1157C5.07069 9.27196 4.88635 8.36761 4.88635 7.45432C4.88635 6.54103 5.07069 5.63669 5.42887 4.79292C5.78704 3.94916 6.31202 3.1825 6.97383 2.53673C7.63565 1.89096 8.42133 1.37871 9.28602 1.02925C10.1507 0.679787 11.0775 0.499947 12.0134 0.5C13.9034 0.500107 15.716 1.23284 17.0524 2.53702C18.3888 3.84119 19.1396 5.60999 19.1396 7.45432C19.1396 9.29865 18.3888 11.0675 17.0524 12.3716C15.716 13.6758 13.9034 14.4085 12.0134 14.4086ZM12.0134 13.1442C12.7791 13.1443 13.5374 12.9971 14.2449 12.7112C14.9524 12.4253 15.5952 12.0062 16.1367 11.4778C16.6782 10.9495 17.1077 10.3222 17.4008 9.63184C17.6938 8.94148 17.8446 8.20156 17.8446 7.45432C17.8446 6.70708 17.6938 5.96716 17.4008 5.27681C17.1077 4.58645 16.6782 3.95919 16.1367 3.43083C15.5952 2.90247 14.9524 2.48336 14.2449 2.19744C13.5374 1.91151 12.7791 1.76437 12.0134 1.76442C10.467 1.76452 8.984 2.36403 7.89058 3.43108C6.79716 4.49814 6.18289 5.94533 6.18289 7.45432C6.18289 8.96332 6.79716 10.4105 7.89058 11.4776C8.984 12.5446 10.467 13.1441 12.0134 13.1442ZM16.8323 14.7172C17.0634 14.4686 17.3842 14.3171 17.7274 14.2947C18.0706 14.2723 18.4093 14.3807 18.6723 14.597C20.8621 16.4482 22.4273 18.824 22.9742 22.085C23.1698 23.4126 22.2317 24.5 20.9398 24.5H3.06105C1.73031 24.5 0.831058 23.4126 1.02672 22.085C1.53465 18.8227 3.09992 16.4482 5.21199 14.597C5.7601 14.114 6.54273 14.1937 7.05196 14.7172C8.30366 16.0069 10.0244 16.811 11.9421 16.811C13.8598 16.811 15.5806 16.0056 16.8323 14.7172ZM2.30821 22.2658C2.22269 22.8537 2.54275 23.2356 3.05975 23.2356H20.9411C21.4361 23.2356 21.7769 22.836 21.6965 22.2898C21.2288 19.5055 19.9421 17.3446 17.8443 15.5706C17.8184 15.5492 17.8093 15.5504 17.773 15.5871C16.2375 17.1664 14.1643 18.0755 11.9421 18.0755C9.71862 18.0755 7.64541 17.1664 6.11124 15.5871C6.07885 15.5542 6.07496 15.5428 6.07626 15.539C3.99658 17.3636 2.73581 19.527 2.30821 22.2658Z" fill="#03842E"/>
</g>
<defs>
<clipPath id="clip0_993_5334">
<rect width="24" height="24" fill="white" transform="translate(0 0.5)"/>
</clipPath>
</defs>
</svg>
