<svg xmlns="http://www.w3.org/2000/svg" width="20" height="20" viewBox="0 0 20 20"><defs><style>.a{opacity:0;}.b{fill:#4186fa;stroke:rgba(0,0,0,0);stroke-miterlimit:10;}</style></defs><g transform="translate(-97 -179)"><rect class="a" width="20" height="20" transform="translate(97 179)"/><path class="b" d="M-3030-8302.328a14.569,14.569,0,0,1-5.937-3.741,14.547,14.547,0,0,1-3.741-5.937,6.768,6.768,0,0,1-.286-2.747,3.644,3.644,0,0,1,1.01-2.18l.754-.753a1.065,1.065,0,0,1,1.509,0l3.319,3.316a1.07,1.07,0,0,1,0,1.51l-.754.756c-.428.426,0,1.808,1.207,3.017s2.591,1.635,3.016,1.206l.756-.753a1.069,1.069,0,0,1,1.509,0l3.319,3.321a1.067,1.067,0,0,1,0,1.507l-.756.756a3.645,3.645,0,0,1-2.179,1.008,5.357,5.357,0,0,1-.664.04A7.361,7.361,0,0,1-3030-8302.328Zm3.048-10.307a3.5,3.5,0,0,0-3.5-3.5.5.5,0,0,1-.5-.5.5.5,0,0,1,.5-.5,4.505,4.505,0,0,1,4.5,4.5.5.5,0,0,1-.5.5A.5.5,0,0,1-3026.948-8312.635Zm-2,0a1.5,1.5,0,0,0-1.5-1.5.5.5,0,0,1-.5-.5.5.5,0,0,1,.5-.5,2.505,2.505,0,0,1,2.5,2.5.5.5,0,0,1-.5.5A.5.5,0,0,1-3028.948-8312.635Z" transform="translate(3139.448 8499.636)"/></g></svg>