<svg xmlns="http://www.w3.org/2000/svg" width="32" height="32" viewBox="0 0 32 32"><defs><style>.a{opacity:0;}.b{fill:#2263E8;}.c,.d{fill:#fff;}.d{opacity:0.6;}</style></defs><g transform="translate(69 -253)"><rect class="a" width="32" height="32" transform="translate(-69 253)"/><circle class="b" cx="15" cy="15" r="15" transform="translate(-68 254)"/><path class="c" d="M-59.051,268h12a1,1,0,0,0,1-1,1,1,0,0,0-1-1h-12a1,1,0,0,0-1,1A1,1,0,0,0-59.051,268Z"/><path class="c" d="M-59.051,273h12a1,1,0,0,0,1-1,1,1,0,0,0-1-1h-12a1,1,0,0,0-1,1A1,1,0,0,0-59.051,273Z"/><path class="c" d="M-54,267v10a1,1,0,0,0,1,1,1,1,0,0,0,1-1V267a1,1,0,0,0-1-1A1,1,0,0,0-54,267Z"/><path class="d" d="M-47.939,262.025l-3.536,3.536a1,1,0,0,0,0,1.414,1,1,0,0,0,1.414,0l3.536-3.536a1,1,0,0,0,0-1.414A1,1,0,0,0-47.939,262.025Z"/><path class="d" d="M-58.061,262.025l3.536,3.536a1,1,0,0,1,0,1.414,1,1,0,0,1-1.414,0l-3.536-3.536a1,1,0,0,1,0-1.414A1,1,0,0,1-58.061,262.025Z"/></g></svg>