<svg xmlns="http://www.w3.org/2000/svg" width="16" height="16" viewBox="0 0 16 16"><defs><style>.a,.b{fill:#fff;}.a{opacity:0;}</style></defs><g transform="translate(-380 -167)"><rect class="a" width="16" height="16" transform="translate(380 167)"/><g transform="translate(379 166)"><path class="b" d="M5,3v8a1,1,0,0,0,1.98.222l.015-.109L7,11V7a5,5,0,0,1,9.979-.446L17,6.776,17,7v8H16V7l-.005-.2a4,4,0,0,0-7.99,0L8,7v4l-.005.149a2,2,0,0,1-3.99,0L4,11V3ZM2,11l.005.2a4,4,0,0,0,7.99,0L10,11V7l.005-.149a2,2,0,0,1,3.99,0L14,7v8H13V7a1,1,0,0,0-1.98-.222l-.015.109L11,7v4a5,5,0,0,1-9.979.446L1,11.224,1,11V3H2Z"/></g></g></svg>