<svg xmlns="http://www.w3.org/2000/svg" width="16" height="16" viewBox="0 0 16 16"><defs><style>.a{opacity:0;}.b{fill:#fff;}</style></defs><g transform="translate(-197 -41)"><rect class="a" width="16" height="16" transform="translate(197 41)"/><path class="b" d="M205,46a3,3,0,1,0,3,3A3,3,0,0,0,205,46Zm0,5a2,2,0,1,1,2-2A2,2,0,0,1,205,51Z"/><path class="b" d="M212.495,51.018l-1.6-.924a5.806,5.806,0,0,0,0-2.188l1.6-.924a.5.5,0,0,0,.183-.683l-1.5-2.6a.5.5,0,0,0-.683-.183l-1.6.924a5.965,5.965,0,0,0-1.9-1.093V41.5a.5.5,0,0,0-.5-.5h-3a.5.5,0,0,0-.5.5v1.849a5.965,5.965,0,0,0-1.9,1.093l-1.6-.924a.5.5,0,0,0-.683.183l-1.5,2.6a.5.5,0,0,0,.183.683l1.6.924a5.806,5.806,0,0,0,0,2.188l-1.6.924a.5.5,0,0,0-.183.683l1.5,2.6a.5.5,0,0,0,.683.183l1.6-.924a5.965,5.965,0,0,0,1.9,1.093V56.5a.5.5,0,0,0,.5.5h3a.5.5,0,0,0,.5-.5V54.651a5.965,5.965,0,0,0,1.9-1.093l1.6.924a.5.5,0,0,0,.683-.183l1.5-2.6A.5.5,0,0,0,212.495,51.018Zm-1.933,2.348-1.167-.674-.612-.353-.538.459a4.967,4.967,0,0,1-1.579.911l-.666.235V56h-2V53.944l-.666-.235a4.978,4.978,0,0,1-1.579-.911l-.538-.459-.612.353-1.167.674-1-1.732,1.166-.674.612-.353-.128-.694a4.78,4.78,0,0,1,0-1.826l.128-.694-.612-.353-1.166-.674,1-1.732,1.167.674.612.353.538-.459a4.978,4.978,0,0,1,1.579-.911l.666-.235V42h2v2.056l.666.235a4.967,4.967,0,0,1,1.579.911l.538.459.612-.353,1.167-.674,1,1.732-1.166.674-.612.353.128.694a4.78,4.78,0,0,1,0,1.826l-.128.694.612.353,1.166.674Z"/></g></svg>