<svg xmlns="http://www.w3.org/2000/svg" width="16" height="16" viewBox="0 0 16 16"><defs><style>.a{opacity:0;}.b{fill:#fff;}</style></defs><g transform="translate(-217 -41)"><rect class="a" width="16" height="16" transform="translate(217 41)"/><path class="b" d="M232,44h-2V42a1,1,0,0,0-1-1h-8a1,1,0,0,0-1,1v2h-2a1,1,0,0,0-1,1v6a1,1,0,0,0,1,1h2v4a1,1,0,0,0,1,1h8a1,1,0,0,0,1-1V52h2a1,1,0,0,0,1-1V45A1,1,0,0,0,232,44Zm-11-2h8v2h-8Zm8,14h-8V50h8Zm3-5h-2V50a1,1,0,0,0-1-1h-8a1,1,0,0,0-1,1v1h-2V45h14Z"/><rect class="b" width="2" height="1" transform="translate(229 46)"/></g></svg>