<svg xmlns="http://www.w3.org/2000/svg" width="16" height="16" viewBox="0 0 16 16"><defs><style>.a,.b{fill:#fff;}.a{opacity:0;}</style></defs><g transform="translate(-380 -167)"><rect class="a" width="16" height="16" transform="translate(380 167)"/><g transform="translate(379 166)"><path class="b" d="M9.449,1.121l6.1,3.548A.906.906,0,0,1,16,5.452v7.1a.906.906,0,0,1-.449.783l-6.1,3.548a.9.9,0,0,1-.9,0l-6.1-3.548A.906.906,0,0,1,2,12.548v-7.1a.906.906,0,0,1,.449-.783l6.1-3.548A.9.9,0,0,1,9.449,1.121ZM9,2.016,3,5.505v6.989l6,3.489,6-3.489V5.505ZM9,6A3,3,0,1,1,6,9,3,3,0,0,1,9,6ZM9,7a2,2,0,1,0,2,2A2,2,0,0,0,9,7Z"/></g></g></svg>