<svg xmlns="http://www.w3.org/2000/svg" width="16" height="16" viewBox="0 0 16 16"><defs><style>.a{opacity:0;}.b{fill:#fff;}</style></defs><g transform="translate(-238 -41)"><rect class="a" width="16" height="16" transform="translate(238 41)"/><path class="b" d="M244.454,42.415a4,4,0,0,1,3.216,6.372l-.388.527.327.566,2.711,4.7-1.732,1-2.711-4.7-.327-.566-.65.072a4.13,4.13,0,0,1-.444.025,4,4,0,0,1-3.466-6l.732,1.268.5.866.866-.5,1.732-1,.866-.5-.5-.866-.732-1.268m0-1a4.983,4.983,0,0,0-1.58.257l1.45,2.511-1.732,1-1.45-2.511a5,5,0,0,0,3.318,8.739,5.161,5.161,0,0,0,.555-.031l3.211,5.562,3.464-2-3.211-5.562a5,5,0,0,0-4.025-7.965Z"/><path class="b" d="M245.313,52.5l-2.74,2.74a1,1,0,0,1-1.414-1.414l2.237-2.237a5.4,5.4,0,0,1-1.076-.338l-1.868,1.868a2,2,0,0,0,2.828,2.828l2.551-2.55Z"/><path class="b" d="M249.636,47.474l3.3-3.3-.707-.707-2.5,2.5A5.332,5.332,0,0,1,249.636,47.474Z"/></g></svg>