<svg xmlns="http://www.w3.org/2000/svg" width="16" height="16" viewBox="0 0 16 16"><defs><style>.a,.b{fill:#fff;}.a{opacity:0;}</style></defs><g transform="translate(-380 -167)"><rect class="a" width="16" height="16" transform="translate(380 167)"/><g transform="translate(380 167)"><path class="b" d="M9.778,2a.889.889,0,0,1,.889.889v.258a6.225,6.225,0,0,1,4.444,5.964v2.74c.567.244.888.522.888.815,0,.982-3.581,1.778-8,1.778l-.572,0-.56-.013C2.986,14.3,0,13.564,0,12.667c0-.294.321-.571.889-.815V9.111A6.224,6.224,0,0,1,5.333,3.147V2.889A.889.889,0,0,1,6.222,2Zm0,.889H6.222V3.81L5.587,4l-.2.065a.393.393,0,0,1,.02.072l.818,4.087A1.084,1.084,0,0,1,5.159,7.35L4.571,4.412A5.366,5.366,0,0,0,1.783,8.923l-.005.188,0,3.748c.166.051.348.1.546.148l.214.05a26.565,26.565,0,0,0,5.464.5,26.565,26.565,0,0,0,5.464-.5c.281-.062.535-.129.76-.2l0-3.748A5.2,5.2,0,0,0,11.431,4.4l-.59,2.948a1.084,1.084,0,0,1-.954.867l-.109.005L10.6,4.135l.02-.073L10.414,4l-.633-.188Z"/></g></g></svg>