<svg xmlns="http://www.w3.org/2000/svg" width="16" height="16" viewBox="0 0 16 16"><defs><style>.a,.b{fill:#fff;}.a{opacity:0;}</style></defs><g transform="translate(-380 -167)"><rect class="a" width="16" height="16" transform="translate(380 167)"/><g transform="translate(379 166)"><path class="b" d="M9,1A8,8,0,1,1,7.257,16.81l.723-.884a7,7,0,1,0-3.063-1.239l-.362.965A8,8,0,0,1,9,1Zm2.7,3a.36.36,0,0,1,.342.477l-.032.07L9.743,8.333h2.4a.361.361,0,0,1,.324.521l-.044.069-6.5,7.944a.361.361,0,0,1-.637-.283l.019-.072,1.983-5.29H5.639a.361.361,0,0,1-.355-.427l.02-.068,2.6-6.5a.36.36,0,0,1,.263-.22L8.239,4ZM10.576,5H8.67L6.582,10.222H8.727L7.6,13.237l3.194-3.9H7.977Z"/></g></g></svg>