<svg xmlns="http://www.w3.org/2000/svg" width="16" height="16" viewBox="0 0 16 16"><defs><style>.a{opacity:0;}.b{fill:#fff;}</style></defs><g transform="translate(-175 -41)"><rect class="a" width="16" height="16" transform="translate(175 41)"/><path class="b" d="M183,42a7,7,0,1,1-7,7,7.008,7.008,0,0,1,7-7m0-1a8,8,0,1,0,8,8,8,8,0,0,0-8-8Z"/><path class="b" d="M183,46a3,3,0,1,1-3,3,3,3,0,0,1,3-3m0-1a4,4,0,1,0,4,4,4,4,0,0,0-4-4Z"/><path class="b" d="M183,48a1,1,0,1,0,1,1,1,1,0,0,0-1-1Z"/></g></svg>