<svg xmlns="http://www.w3.org/2000/svg" width="16" height="16" viewBox="0 0 16 16"><defs><style>.a{fill:#fff;}</style></defs><g transform="translate(-0.669 -0.499)"><path class="a" d="M16.283,7.558a2.792,2.792,0,0,1-1.054,3.857L6.912,16.121a2.914,2.914,0,0,1-1.291.376l-.165,0a2.888,2.888,0,0,1-2.479-1.412,2.792,2.792,0,0,1,1.054-3.857l8.316-4.706A2.912,2.912,0,0,1,16.283,7.558ZM4.644,11.977l-.133.069a1.863,1.863,0,0,0-.431,2.928l.106.1.041.035.071.056.065.047.108.07.117.064.132.06.093.037.129.04.141.035h0l.063.011.143.019.149.008h0l.149,0,.072-.006a1.919,1.919,0,0,0,.449-.1l.167-.066h0l.157-.08a1.862,1.862,0,0,0,.7-2.571,1.941,1.941,0,0,0-2.348-.818Zm8.31-4.7-.127.066L6.37,10.994a2.856,2.856,0,0,1,1.6,1.271,2.763,2.763,0,0,1,.325,1.991L14.748,10.6a1.862,1.862,0,0,0,.7-2.571A1.941,1.941,0,0,0,12.954,7.274Zm1.408-5.363a2.792,2.792,0,0,1-1.054,3.857L4.991,10.474A2.914,2.914,0,0,1,3.7,10.85l-.165,0A2.888,2.888,0,0,1,1.056,9.441,2.792,2.792,0,0,1,2.11,5.584L10.427.878A2.912,2.912,0,0,1,14.362,1.912ZM2.723,6.33,2.591,6.4a1.863,1.863,0,0,0-.431,2.928l.106.1.041.035.071.056.065.047.108.07.117.064.132.06.093.037.129.04.141.035h0l.063.011.143.019.149.008h0l.149,0L3.738,9.9a1.919,1.919,0,0,0,.449-.1l.167-.066h0l.157-.08.127-.078a1.859,1.859,0,0,0,.576-2.493A1.941,1.941,0,0,0,2.723,6.33Zm8.31-4.7-.127.066L4.45,5.347a2.856,2.856,0,0,1,1.6,1.271A2.763,2.763,0,0,1,6.37,8.608l6.457-3.654a1.862,1.862,0,0,0,.7-2.571A1.941,1.941,0,0,0,11.034,1.627Z"/></g></svg>