<svg xmlns="http://www.w3.org/2000/svg" width="16" height="16" viewBox="0 0 16 16"><defs><style>.a,.b{fill:#fff;}.a{opacity:0;}</style></defs><g transform="translate(-380 -167)"><rect class="a" width="16" height="16" transform="translate(380 167)"/><g transform="translate(379 166)"><path class="b" d="M8,16v1H7V16Zm3,0v1H10V16ZM5,13v2H4V13Zm3,0v2H7V13Zm3,0v2H10V13Zm3,0v2H13V13ZM8,1V4.062a8.1,8.1,0,0,1,2,0V1h1V4.252a8,8,0,0,1,6,7.5L17,12H1A8,8,0,0,1,7,4.252V1ZM9,5a7,7,0,0,0-6.9,5.818L2.071,11H15.928l-.024-.164A7,7,0,0,0,9.241,5Z"/></g></g></svg>