<svg xmlns="http://www.w3.org/2000/svg" width="20" height="20" viewBox="0 0 20 20"><defs><style>.a{opacity:0;}.b{fill:#cf803c;}</style></defs><g transform="translate(38 -121)"><rect class="a" width="20" height="20" transform="translate(-38 121)"/><path class="b" d="M-21,124.5H-35a2,2,0,0,0-2,2v10a2,2,0,0,0,2,2h14a2,2,0,0,0,2-2v-10A2,2,0,0,0-21,124.5Zm1,12a1,1,0,0,1-1,1H-35a1,1,0,0,1-1-1v-10a1,1,0,0,1,1-1h14a1,1,0,0,1,1,1Z"/><path class="b" d="M-23,129H-33a.5.5,0,0,0-.5.5.5.5,0,0,0,.5.5h10a.5.5,0,0,0,.5-.5A.5.5,0,0,0-23,129Z"/><path class="b" d="M-23,133H-33a.5.5,0,0,0-.5.5.5.5,0,0,0,.5.5h10a.5.5,0,0,0,.5-.5A.5.5,0,0,0-23,133Z"/><path class="b" d="M-34.532,126a.5.5,0,0,1-.461-.305.5.5,0,0,1,.265-.655l5.365-2.278a4.492,4.492,0,0,1,3.771.117l4.348,2.174a.5.5,0,0,1,.223.671.5.5,0,0,1-.67.223l-4.349-2.174a3.486,3.486,0,0,0-2.933-.09l-5.364,2.277A.5.5,0,0,1-34.532,126Z"/></g></svg>