<svg xmlns="http://www.w3.org/2000/svg" width="20" height="20" viewBox="0 0 20 20"><defs><style>.a{opacity:0;}.b{fill:#fff;}</style></defs><g transform="translate(36 -121)"><rect class="a" width="20" height="20" transform="translate(-36 121)"/><path class="b" d="M-27,122a8.009,8.009,0,0,0-8,8,8.009,8.009,0,0,0,8,8,8.009,8.009,0,0,0,8-8A8.009,8.009,0,0,0-27,122Zm0,14a6,6,0,0,1-6-6,6,6,0,0,1,6-6,6,6,0,0,1,6,6A6,6,0,0,1-27,136Z"/><path class="b" d="M-16.379,139.207l-2.828-2.828a1,1,0,0,0-1.414,0,1,1,0,0,0,0,1.414l2.828,2.828a1,1,0,0,0,.707.293,1,1,0,0,0,.707-.293A1,1,0,0,0-16.379,139.207Z"/></g></svg>