<svg xmlns="http://www.w3.org/2000/svg" width="24" height="24" viewBox="0 0 24 24"><defs><style>.a{opacity:0;}.b{fill:#33302d;}.c{fill:#efcabd;}.d{fill:#4372dd;}.e{fill:#f9ddcf;}.f{fill:#b4b4b4;}.g{fill:#fff;}</style></defs><g transform="translate(152 -207)"><rect class="a" width="24" height="24" transform="translate(-152 207)"/><path class="b" d="M-139.894,207.563c-4.153,0-5.992,2.247-5.992,5.992v10.486H-133.9V213.555a5.611,5.611,0,0,0-5.992-5.992Zm0,0"/><path class="c" d="M-137.647,230v-9.206l-.749-3h-3l-.749,3V230Z"/><path class="d" d="M-129.432,231c-.071-1.243-.358-4.345-1.474-5.461-.7-.7-5.992-3-5.992-3L-139.717,231Z"/><path class="d" d="M-140.071,231l-2.819-8.457s-5.288,2.292-5.992,3c-1.116,1.116-1.4,4.218-1.475,5.461Z"/><path class="e" d="M-137.833,212.044c-.586,1.3-2.608,2.26-5.057,2.26h-1.487a8.324,8.324,0,0,0,.739,3.745c.749,1.5,2.277,3,3.745,3s3-1.5,3.744-3a9.64,9.64,0,0,0,.748-4.53c-.044-.842-1.633-1.475-2.432-1.475Zm0,0"/><path class="f" d="M-133.3,212.446c-.654-2.363-3.355-4.134-6.589-4.134s-5.935,1.771-6.589,4.134c-.5.274-.9.67-.9,1.109v1.5c0,.827,1.42,1.5,2.247,1.5v-3c0-2.068,2.347-3.745,5.243-3.745s5.243,1.677,5.243,3.745v1.5a3.747,3.747,0,0,1-2.429,3.508,1.121,1.121,0,0,0-.941-.512h-1.5a1.124,1.124,0,0,0-1.124,1.124,1.124,1.124,0,0,0,1.124,1.124h1.5a1.131,1.131,0,0,0,.315-.045,5.247,5.247,0,0,0,4.44-4.111,1.431,1.431,0,0,0,.862-1.087v-1.5c0-.44-.4-.836-.9-1.11Zm0,0"/><rect class="g" width="2" height="0.5" transform="translate(-135 227.25)"/><path class="g" d="M-140.871,231h1.953l2.019-4.712,3.745-.749-4.494-3.745L-140,228l-2.141-6.206-4.494,3.745,3.745.749Z"/></g></svg>