<svg xmlns="http://www.w3.org/2000/svg" width="20" height="20" viewBox="0 0 20 20"><defs><style>.a{opacity:0;}.b{fill:#cf803c;}</style></defs><g transform="translate(-62 -121)"><rect class="a" width="20" height="20" transform="translate(62 121)"/><path class="b" d="M77.5,140h-12a.5.5,0,0,1,0-1h12a.5.5,0,0,1,0,1Z"/><path class="b" d="M74.485,123.686a1,1,0,0,1,.707.293l2.829,2.829a1,1,0,0,1,0,1.414l-6.9,6.9A3,3,0,0,1,69,136H66v-3a3,3,0,0,1,.879-2.121l6.9-6.9a1,1,0,0,1,.707-.293m0-1a1.986,1.986,0,0,0-1.414.586l-6.9,6.9A3.971,3.971,0,0,0,65,133v4h4a3.971,3.971,0,0,0,2.828-1.172l6.9-6.9a2,2,0,0,0,0-2.828L75.9,123.272a1.983,1.983,0,0,0-1.414-.586Z"/><path class="b" d="M77.4,129.347a.5.5,0,0,1-.354-.146L72.8,124.958a.5.5,0,0,1,.707-.707l4.243,4.243a.5.5,0,0,1-.353.853Z"/></g></svg>