<svg xmlns="http://www.w3.org/2000/svg" width="16" height="16" viewBox="0 0 16 16"><defs><style>.a{opacity:0;}.b{fill:#656565;}</style></defs><g transform="translate(38 -100)"><rect class="a" width="16" height="16" transform="translate(-38 100)"/><path class="b" d="M-27,101h-6a2,2,0,0,0-2,2v10a2,2,0,0,0,2,2h6a2,2,0,0,0,2-2V103A2,2,0,0,0-27,101Zm1,12a1,1,0,0,1-1,1h-6a1,1,0,0,1-1-1V103a1,1,0,0,1,1-1h6a1,1,0,0,1,1,1Z"/><path class="b" d="M-28,112h-4a.5.5,0,0,0-.5.5.5.5,0,0,0,.5.5h4a.5.5,0,0,0,.5-.5A.5.5,0,0,0-28,112Z"/></g></svg>