<svg width="252" height="104" viewBox="0 0 252 104" fill="none" xmlns="http://www.w3.org/2000/svg">
<g id="top_logo">
<g id="Frame">
<g id="&#233;&#141;&#165;&#230;&#131;&#167;&#231;&#156;&#176;_1" clip-path="url(#clip0_993_4796)">
<path id="Vector" d="M51.999 101.119C42.2825 101.124 32.7829 98.2461 24.7027 92.8497C16.6225 87.4533 10.325 79.7809 6.60713 70.8038C2.88929 61.8267 1.91832 51.9484 3.81712 42.4192C5.71593 32.89 10.3991 24.1384 17.274 17.272C21.8344 12.7117 27.2484 9.09427 33.2068 6.62631C39.1652 4.15835 45.5514 2.88816 52.0007 2.88825C58.45 2.88835 64.8362 4.15872 70.7945 6.62686C76.7529 9.09499 82.1668 12.7125 86.727 17.273C91.2873 21.8334 94.9047 27.2474 97.3727 33.2058C99.8407 39.1642 101.111 45.5504 101.111 51.9997C101.111 58.449 99.8403 64.8352 97.3721 70.7935C94.904 76.7519 91.2865 82.1657 86.726 86.726C82.177 91.3024 76.7654 94.9309 70.8044 97.4015C64.8435 99.8721 58.4516 101.136 51.999 101.119ZM51.999 5.59967C26.4106 5.59967 5.59163 26.4186 5.59163 52.0091C5.59163 77.5995 26.4106 98.4184 51.999 98.4184C77.5875 98.4184 98.4144 77.5895 98.4144 51.999C98.4144 26.4085 77.5895 5.58961 51.999 5.58961V5.59967Z" fill="#03842E"/>
<path id="Vector_2" d="M51.9991 97.4967C43.0005 97.4978 34.2038 94.8301 26.7215 89.8311C19.2393 84.8321 13.4077 77.7264 9.96431 69.4127C6.52095 61.099 5.62056 51.9509 7.37701 43.1254C9.13346 34.2999 13.4678 26.1936 19.8319 19.8318C24.0562 15.6075 29.0711 12.2567 34.5904 9.97053C40.1096 7.68438 46.0251 6.50771 51.9991 6.50771C57.9731 6.50771 63.8886 7.68438 69.4079 9.97053C74.9271 12.2567 79.942 15.6075 84.1663 19.8318C88.3906 24.0561 91.7414 29.071 94.0276 34.5902C96.3137 40.1095 97.4904 46.025 97.4904 51.999C97.4904 57.973 96.3137 63.8885 94.0276 69.4077C91.7414 74.927 88.3906 79.9419 84.1663 84.1662C79.9526 88.4051 74.9398 91.766 69.4183 94.0542C63.8967 96.3424 57.976 97.5125 51.9991 97.4967ZM51.9991 7.52761C27.4753 7.52761 7.52371 27.4792 7.52371 52.003C7.52371 76.5269 27.4773 96.4784 51.9991 96.4784C76.521 96.4784 96.4745 76.5269 96.4745 52.003C96.4745 27.4792 76.525 7.52157 51.9991 7.52157V7.52761Z" fill="#03842E"/>
<g id="Clip path group">
<mask id="mask0_993_4796" style="mask-type:luminance" maskUnits="userSpaceOnUse" x="60" y="34" width="14" height="28">
<g id="clip-path">
<path id="Vector_3" d="M60.9826 37.5395C60.9826 36.8109 60.9183 36.0824 60.9283 35.3559C60.9283 35.1728 60.9967 34.8669 61.194 34.8106C61.3912 34.7542 61.5441 34.9796 61.6649 35.1124C61.9486 35.4203 71.9284 46.1407 72.4718 46.4708C73.0152 46.8008 73.2204 47.2013 73.2204 47.8191C73.2204 49.9657 73.2204 52.1124 73.2204 54.259C68.7065 57.0764 64.8466 59.4109 61.204 61.526L60.9605 61.6669C60.9605 60.6418 60.9605 59.6175 60.9605 58.5938C60.9605 55.062 60.9263 51.5321 60.9283 48.0022C60.9404 44.5086 60.9826 41.023 60.9826 37.5395Z" fill="white"/>
</g>
</mask>
<g mask="url(#mask0_993_4796)">
<g id="Group">
<path id="Vector_4" d="M63.0796 34.7623L60.9182 35.5491V34.7623H63.0796Z" fill="#03842E"/>
<path id="Vector_5" d="M66.1868 34.7623L60.9182 36.6801V35.5491L63.0796 34.7623H66.1868Z" fill="#03842E"/>
<path id="Vector_6" d="M69.0486 34.7623L69.0787 34.8428L60.9182 37.8131V36.6801L66.1868 34.7623H69.0486Z" fill="#03842E"/>
<path id="Vector_7" d="M69.0787 34.8428L69.443 35.8409L60.9182 38.9441V37.8131L69.0787 34.8428Z" fill="#03842E"/>
<path id="Vector_8" d="M69.443 35.8409L69.8052 36.8411L60.9182 40.0772V38.9442L69.443 35.8409Z" fill="#03842E"/>
<path id="Vector_9" d="M69.8052 36.8411L70.1695 37.8393L60.9182 41.2082V40.0772L69.8052 36.8411Z" fill="#03842E"/>
<path id="Vector_10" d="M70.1695 37.8393L70.5338 38.8395L60.9182 42.3412V41.2082L70.1695 37.8393Z" fill="#03842E"/>
<path id="Vector_11" d="M70.5338 38.8395L70.898 39.8377L60.9182 43.4722V42.3412L70.5338 38.8395Z" fill="#03842E"/>
<path id="Vector_12" d="M70.898 39.8377L71.2623 40.8379L60.9182 44.6032V43.4722L70.898 39.8377Z" fill="#03842E"/>
<path id="Vector_13" d="M71.2623 40.8379L71.6265 41.8361L60.9182 45.7362V44.6032L71.2623 40.8379Z" fill="#03842E"/>
<path id="Vector_14" d="M71.6265 41.8361L71.9888 42.8362L60.9182 46.8672V45.7362L71.6265 41.8361Z" fill="#03842E"/>
<path id="Vector_15" d="M71.9888 42.8363L72.353 43.8364L60.9182 48.0002V46.8672L71.9888 42.8363Z" fill="#03842E"/>
<path id="Vector_16" d="M72.353 43.8364L72.7173 44.8346L60.9182 49.1312V48.0002L72.353 43.8364Z" fill="#03842E"/>
<path id="Vector_17" d="M72.7173 44.8346L73.0815 45.8348L60.9182 50.2622V49.1312L72.7173 44.8346Z" fill="#03842E"/>
<path id="Vector_18" d="M73.0815 45.8348L73.2284 46.2393V46.9115L60.9182 51.3952V50.2622L73.0815 45.8348Z" fill="#03842E"/>
<path id="Vector_19" d="M73.2284 48.0445L60.9182 52.5263V51.3952L73.2284 46.9115V48.0445Z" fill="#03842E"/>
<path id="Vector_20" d="M73.2284 49.1755L60.9182 53.6593V52.5263L73.2284 48.0445V49.1755Z" fill="#03842E"/>
<path id="Vector_21" d="M73.2284 50.3085L60.9182 54.7903V53.6593L73.2284 49.1755V50.3085Z" fill="#03842E"/>
<path id="Vector_22" d="M73.2284 51.4395L60.9182 55.9213V54.7903L73.2284 50.3085V51.4395Z" fill="#03842E"/>
<path id="Vector_23" d="M73.2284 52.5705L60.9182 57.0543V55.9213L73.2284 51.4395V52.5705Z" fill="#03842E"/>
<path id="Vector_24" d="M73.2284 53.7035L60.9182 58.1853V57.0543L73.2284 52.5705V53.7035Z" fill="#03842E"/>
<path id="Vector_25" d="M73.2284 54.8345L60.9182 59.3183V58.1853L73.2284 53.7035V54.8345Z" fill="#03842E"/>
<path id="Vector_26" d="M73.2284 55.9676L60.9182 60.4493V59.3183L73.2284 54.8345V55.9676Z" fill="#03842E"/>
<path id="Vector_27" d="M73.2284 57.0986L60.9182 61.5803V60.4493L73.2284 55.9676V57.0986Z" fill="#03842E"/>
<path id="Vector_28" d="M73.2284 58.2316L63.8182 61.6568H60.9182V61.5803L73.2284 57.0986V58.2316Z" fill="#03842E"/>
<path id="Vector_29" d="M73.2284 59.3626L66.9254 61.6568H63.8181L73.2284 58.2316V59.3626Z" fill="#03842E"/>
<path id="Vector_30" d="M73.2283 60.4936L70.0345 61.6568H66.9253L73.2283 59.3626V60.4936Z" fill="#03842E"/>
<path id="Vector_31" d="M73.2284 61.6266L73.1419 61.6568H70.0347L73.2284 60.4936V61.6266Z" fill="#03842E"/>
<path id="Vector_32" d="M73.1418 61.6568L73.2284 61.6266V61.6568H73.1418Z" fill="#03842E"/>
</g>
</g>
</g>
<g id="Clip path group_2">
<mask id="mask1_993_4796" style="mask-type:luminance" maskUnits="userSpaceOnUse" x="60" y="61" width="14" height="19">
<g id="clip-path-2">
<path id="Vector_33" d="M72.3892 79.6522C72.1879 79.6522 67.8974 79.3604 67.7444 79.3685C67.2212 79.4027 62.1739 79.7247 61.9244 79.7327C61.4213 79.7468 61.2019 79.5778 60.8457 79.3021C60.4432 78.9901 60.7753 77.4687 60.7652 76.6376C60.7531 75.6776 60.9242 74.7157 60.9302 73.7537C60.9383 72.4778 60.9443 71.2032 60.9483 69.93C64.8686 67.5412 68.8553 64.925 72.8339 62.1317L73.2364 61.8419C73.2458 65.7729 73.2566 69.7026 73.2686 73.6309C73.2924 73.9077 73.3409 74.1818 73.4135 74.45C73.4895 74.7322 73.5413 75.0204 73.5685 75.3113C73.5846 76.1344 73.494 76.9636 73.5685 77.7806C73.643 78.5977 73.5826 79.6079 72.3892 79.6522Z" fill="white"/>
</g>
</mask>
<g mask="url(#mask1_993_4796)">
<g id="Group_2">
<path id="Vector_34" d="M63.307 61.844L60.4453 62.8864V61.844H63.307Z" fill="#03842E"/>
<path id="Vector_35" d="M66.4163 61.844L60.4453 64.0174V62.8864L63.307 61.844H66.4163Z" fill="#03842E"/>
<path id="Vector_36" d="M69.5235 61.844L60.4453 65.1484V64.0174L66.4163 61.844H69.5235Z" fill="#03842E"/>
<path id="Vector_37" d="M72.6328 61.844L60.4453 66.2814V65.1484L69.5235 61.844H72.6328Z" fill="#03842E"/>
<path id="Vector_38" d="M73.6028 61.844L73.6632 62.011V62.5986L60.4453 67.4124V66.2814L72.6328 61.844H73.6028Z" fill="#03842E"/>
<path id="Vector_39" d="M73.6632 63.7316L60.4453 68.5455V67.4124L73.6632 62.5986V63.7316Z" fill="#03842E"/>
<path id="Vector_40" d="M73.6632 64.8627L60.4453 69.6765V68.5455L73.6632 63.7316V64.8627Z" fill="#03842E"/>
<path id="Vector_41" d="M73.6632 65.9957L60.4453 70.8075V69.6765L73.6632 64.8627V65.9957Z" fill="#03842E"/>
<path id="Vector_42" d="M73.6632 67.1267L60.4453 71.9405V70.8075L73.6632 65.9957V67.1267Z" fill="#03842E"/>
<path id="Vector_43" d="M73.6632 68.2577L60.4453 73.0715V71.9405L73.6632 67.1267V68.2577Z" fill="#03842E"/>
<path id="Vector_44" d="M73.6632 69.3907L60.4453 74.2045V73.0715L73.6632 68.2577V69.3907Z" fill="#03842E"/>
<path id="Vector_45" d="M73.6632 70.5217L60.4453 75.3355V74.2045L73.6632 69.3907V70.5217Z" fill="#03842E"/>
<path id="Vector_46" d="M73.6632 71.6547L60.4453 76.4665V75.3355L73.6632 70.5217V71.6547Z" fill="#03842E"/>
<path id="Vector_47" d="M73.6632 72.7857L60.4453 77.5995V76.4665L73.6632 71.6547V72.7857Z" fill="#03842E"/>
<path id="Vector_48" d="M73.6632 73.9167L60.4453 78.7305V77.5995L73.6632 72.7857V73.9167Z" fill="#03842E"/>
<path id="Vector_49" d="M73.6632 75.0497L60.7633 79.7468H60.4453V78.7305L73.6632 73.9167V75.0497Z" fill="#03842E"/>
<path id="Vector_50" d="M73.6631 76.1807L63.8724 79.7468H60.7632L73.6631 75.0497V76.1807Z" fill="#03842E"/>
<path id="Vector_51" d="M73.6632 77.3137L66.9798 79.7468H63.8726L73.6632 76.1807V77.3137Z" fill="#03842E"/>
<path id="Vector_52" d="M73.6631 78.4448L70.089 79.7468H66.9797L73.6631 77.3138V78.4448Z" fill="#03842E"/>
<path id="Vector_53" d="M73.6632 79.5778L73.1963 79.7468H70.0891L73.6632 78.4447V79.5778Z" fill="#03842E"/>
<path id="Vector_54" d="M73.1963 79.7468L73.6632 79.5778V79.7468H73.1963Z" fill="#03842E"/>
</g>
</g>
</g>
<g id="Clip path group_3">
<mask id="mask2_993_4796" style="mask-type:luminance" maskUnits="userSpaceOnUse" x="46" y="10" width="14" height="41">
<g id="clip-path-3">
<path id="Vector_55" d="M53.0414 50.4514C54.6272 50.4514 58.6501 50.9183 59.0949 50.705C59.8194 50.3568 59.7791 49.1835 59.5618 47.9922C59.0304 45.1671 58.7883 42.2952 58.8393 39.4211C58.8755 37.8111 58.797 36.2012 58.8031 34.5912C58.8131 31.8381 58.8554 29.0851 58.8675 26.3401C58.8675 25.2071 58.8856 24.07 58.8011 22.9411C58.7407 22.1361 58.3161 21.5464 57.5735 21.0996C56.9818 20.7455 56.523 20.1598 56.0239 19.6587C55.5248 19.1576 55.0297 18.6042 54.5206 18.089C53.5948 17.1512 52.647 16.2335 51.7293 15.2856C50.9102 14.4384 50.1193 13.567 49.3143 12.6976C48.771 12.1039 48.2598 11.4781 47.7043 10.9025C47.5635 10.7576 47.2214 10.6288 47.0805 10.7013C46.965 10.7648 46.865 10.8532 46.7877 10.96C46.7105 11.0668 46.6579 11.1895 46.6337 11.3191C46.5995 12.8667 46.6237 14.4143 46.6237 15.9618C46.6237 17.5094 46.6116 19.0127 46.6237 20.5362C46.6418 28.264 46.678 35.9899 46.6699 43.7177C46.6608 45.0395 46.5701 46.3595 46.3983 47.6702C46.3459 48.0727 46.0662 49.1272 46.2332 49.7853C46.3922 50.4111 46.8088 50.6748 47.3944 50.6768C49.105 50.6768 51.3429 50.4574 53.0535 50.4574L53.0414 50.4514Z" fill="white"/>
</g>
</mask>
<g mask="url(#mask2_993_4796)">
<g id="Group_3">
<path id="Vector_56" d="M48.5879 10.6127L46.0542 11.5344V10.6127H48.5879Z" fill="#03842E"/>
<path id="Vector_57" d="M51.6951 10.6127L46.0542 12.6674V11.5344L48.5879 10.6127H51.6951Z" fill="#03842E"/>
<path id="Vector_58" d="M54.8044 10.6127L46.0542 13.7984V12.6674L51.6951 10.6127H54.8044Z" fill="#03842E"/>
<path id="Vector_59" d="M54.907 10.6127L55.2592 11.5787L46.0542 14.9294V13.7984L54.8044 10.6127H54.907Z" fill="#03842E"/>
<path id="Vector_60" d="M55.2592 11.5787L55.6235 12.5769L46.0542 16.0625V14.9294L55.2592 11.5787Z" fill="#03842E"/>
<path id="Vector_61" d="M55.6235 12.5769L55.9877 13.5771L46.0542 17.1935V16.0625L55.6235 12.5769Z" fill="#03842E"/>
<path id="Vector_62" d="M55.9877 13.5771L56.35 14.5752L46.0542 18.3245V17.1935L55.9877 13.5771Z" fill="#03842E"/>
<path id="Vector_63" d="M56.35 14.5752L56.7142 15.5754L46.0542 19.4575V18.3245L56.35 14.5752Z" fill="#03842E"/>
<path id="Vector_64" d="M56.7142 15.5754L57.0785 16.5736L46.0542 20.5885V19.4575L56.7142 15.5754Z" fill="#03842E"/>
<path id="Vector_65" d="M57.0785 16.5736L57.4427 17.5738L46.0542 21.7215V20.5885L57.0785 16.5736Z" fill="#03842E"/>
<path id="Vector_66" d="M57.4427 17.5738L57.807 18.574L46.0542 22.8525V21.7215L57.4427 17.5738Z" fill="#03842E"/>
<path id="Vector_67" d="M57.807 18.574L58.1712 19.5722L46.0542 23.9855V22.8525L57.807 18.574Z" fill="#03842E"/>
<path id="Vector_68" d="M58.1712 19.5722L58.5335 20.5724L46.0542 25.1165V23.9855L58.1712 19.5722Z" fill="#03842E"/>
<path id="Vector_69" d="M58.5335 20.5724L58.8977 21.5706L46.0542 26.2475V25.1165L58.5335 20.5724Z" fill="#03842E"/>
<path id="Vector_70" d="M58.8977 21.5706L59.262 22.5708L46.0542 27.3805V26.2475L58.8977 21.5706Z" fill="#03842E"/>
<path id="Vector_71" d="M59.262 22.5708L59.6262 23.5709L46.0542 28.5115V27.3805L59.262 22.5708Z" fill="#03842E"/>
<path id="Vector_72" d="M59.6262 23.571L59.8194 24.1002V24.6315L46.0542 29.6446V28.5115L59.6262 23.571Z" fill="#03842E"/>
<path id="Vector_73" d="M59.8194 25.7625L46.0542 30.7756V29.6446L59.8194 24.6315V25.7625Z" fill="#03842E"/>
<path id="Vector_74" d="M59.8194 26.8955L46.0542 31.9066V30.7756L59.8194 25.7625V26.8955Z" fill="#03842E"/>
<path id="Vector_75" d="M59.8194 28.0265L46.0542 33.0396V31.9066L59.8194 26.8955V28.0265Z" fill="#03842E"/>
<path id="Vector_76" d="M59.8194 29.1595L46.0542 34.1706V33.0396L59.8194 28.0265V29.1595Z" fill="#03842E"/>
<path id="Vector_77" d="M59.8194 30.2906L46.0542 35.3036V34.1706L59.8194 29.1596V30.2906Z" fill="#03842E"/>
<path id="Vector_78" d="M59.8194 31.4216L46.0542 36.4346V35.3036L59.8194 30.2906V31.4216Z" fill="#03842E"/>
<path id="Vector_79" d="M59.8194 32.5546L46.0542 37.5656V36.4346L59.8194 31.4216V32.5546Z" fill="#03842E"/>
<path id="Vector_80" d="M59.8194 33.6856L46.0542 38.6986V37.5656L59.8194 32.5546V33.6856Z" fill="#03842E"/>
<path id="Vector_81" d="M59.8194 34.8186L46.0542 39.8296V38.6986L59.8194 33.6856V34.8186Z" fill="#03842E"/>
<path id="Vector_82" d="M59.8194 35.9496L46.0542 40.9626V39.8296L59.8194 34.8186V35.9496Z" fill="#03842E"/>
<path id="Vector_83" d="M59.8194 37.0826L46.0542 42.0936V40.9626L59.8194 35.9496V37.0826Z" fill="#03842E"/>
<path id="Vector_84" d="M59.8194 38.2136L46.0542 43.2267V42.0936L59.8194 37.0826V38.2136Z" fill="#03842E"/>
<path id="Vector_85" d="M59.8194 39.3446L46.0542 44.3577V43.2267L59.8194 38.2136V39.3446Z" fill="#03842E"/>
<path id="Vector_86" d="M59.8194 40.4776L46.0542 45.4887V44.3577L59.8194 39.3446V40.4776Z" fill="#03842E"/>
<path id="Vector_87" d="M59.8194 41.6086L46.0542 46.6217V45.4887L59.8194 40.4776V41.6086Z" fill="#03842E"/>
<path id="Vector_88" d="M59.8194 42.7417L46.0542 47.7527V46.6217L59.8194 41.6086V42.7417Z" fill="#03842E"/>
<path id="Vector_89" d="M59.8194 43.8727L46.0542 48.8857V47.7527L59.8194 42.7417V43.8727Z" fill="#03842E"/>
<path id="Vector_90" d="M59.8194 45.0037L46.0542 50.0167V48.8857L59.8194 43.8727V45.0037Z" fill="#03842E"/>
<path id="Vector_91" d="M59.8194 46.1367L46.6821 50.9203H46.2112L46.0542 50.4896V50.0167L59.8194 45.0037V46.1367Z" fill="#03842E"/>
<path id="Vector_92" d="M59.8195 47.2677L49.7894 50.9203H46.6821L59.8195 46.1367V47.2677Z" fill="#03842E"/>
<path id="Vector_93" d="M59.8194 48.4007L52.8986 50.9203H49.7893L59.8194 47.2677V48.4007Z" fill="#03842E"/>
<path id="Vector_94" d="M59.8195 49.5317L56.0059 50.9203H52.8987L59.8195 48.4007V49.5317Z" fill="#03842E"/>
<path id="Vector_95" d="M59.8195 50.6627L59.1151 50.9203H56.0059L59.8195 49.5317V50.6627Z" fill="#03842E"/>
<path id="Vector_96" d="M59.115 50.9203L59.8194 50.6627V50.9203H59.115Z" fill="#03842E"/>
</g>
</g>
</g>
<g id="Clip path group_4">
<mask id="mask3_993_4796" style="mask-type:luminance" maskUnits="userSpaceOnUse" x="46" y="52" width="13" height="18">
<g id="clip-path-4">
<path id="Vector_97" d="M46.6098 54.3173C46.6098 54.0034 46.4548 53.128 47.5335 53.0354C48.6927 52.9388 50.6045 53.2246 52.4519 53.2024C54.9353 53.1682 56.9317 52.8905 57.5757 53.0233C58.4209 53.2004 58.7409 54.0658 58.8013 54.8647C58.8858 55.9937 58.8737 57.1308 58.8677 58.2638C58.8677 59.4713 58.8516 61.1537 58.8395 62.8824C54.3155 65.4684 50.359 67.5915 46.652 69.4249C46.642 64.3555 46.6239 59.2298 46.6098 54.3173Z" fill="white"/>
</g>
</mask>
<g mask="url(#mask3_993_4796)">
<g id="Group_4">
<path id="Vector_98" d="M47.4852 52.8905L46.4548 53.2668V52.8905H47.4852Z" fill="#03842E"/>
<path id="Vector_99" d="M50.5925 52.8905L46.4548 54.3978V53.2668L47.4852 52.8905H50.5925Z" fill="#03842E"/>
<path id="Vector_100" d="M53.7017 52.8905L46.4548 55.5288V54.3978L50.5925 52.8905H53.7017Z" fill="#03842E"/>
<path id="Vector_101" d="M56.8089 52.8905L46.4548 56.6619V55.5288L53.7017 52.8905H56.8089Z" fill="#03842E"/>
<path id="Vector_102" d="M58.6725 52.8905L58.8174 53.291L46.4548 57.7929V56.6619L56.809 52.8905H58.6725Z" fill="#03842E"/>
<path id="Vector_103" d="M58.8174 53.291L58.8858 53.4822V54.3978L46.4548 58.9259V57.7929L58.8174 53.291Z" fill="#03842E"/>
<path id="Vector_104" d="M58.8858 55.5309L46.4548 60.0569V58.9259L58.8858 54.3978V55.5309Z" fill="#03842E"/>
<path id="Vector_105" d="M58.8858 56.6619L46.4548 61.1879V60.0569L58.8858 55.5309V56.6619Z" fill="#03842E"/>
<path id="Vector_106" d="M58.8858 57.7929L46.4548 62.3209V61.1879L58.8858 56.6619V57.7929Z" fill="#03842E"/>
<path id="Vector_107" d="M58.8858 58.9259L46.4548 63.4519V62.3209L58.8858 57.7929V58.9259Z" fill="#03842E"/>
<path id="Vector_108" d="M58.8858 60.0569L46.4548 64.5849V63.4519L58.8858 58.9259V60.0569Z" fill="#03842E"/>
<path id="Vector_109" d="M58.8858 61.1899L46.4548 65.7159V64.5849L58.8858 60.0569V61.1899Z" fill="#03842E"/>
<path id="Vector_110" d="M58.8858 62.3209L46.4548 66.8469V65.7159L58.8858 61.1899V62.3209Z" fill="#03842E"/>
<path id="Vector_111" d="M58.8858 63.4519L46.4548 67.9799V66.8469L58.8858 62.3209V63.4519Z" fill="#03842E"/>
<path id="Vector_112" d="M58.8858 64.5849L46.4548 69.1109V67.9799L58.8858 63.4519V64.5849Z" fill="#03842E"/>
<path id="Vector_113" d="M58.8858 65.7159L48.7007 69.4249H46.4548V69.111L58.8858 64.5849V65.7159Z" fill="#03842E"/>
<path id="Vector_114" d="M58.8858 66.8489L51.8099 69.4249H48.7007L58.8858 65.7159V66.8489Z" fill="#03842E"/>
<path id="Vector_115" d="M58.8859 67.98L54.9173 69.4249H51.8101L58.8859 66.849V67.98Z" fill="#03842E"/>
<path id="Vector_116" d="M58.8858 69.111L58.0265 69.4249H54.9172L58.8858 67.9799V69.111Z" fill="#03842E"/>
<path id="Vector_117" d="M58.0266 69.4249L58.8859 69.1109V69.4249H58.0266Z" fill="#03842E"/>
</g>
</g>
</g>
<g id="Clip path group_5">
<mask id="mask4_993_4796" style="mask-type:luminance" maskUnits="userSpaceOnUse" x="46" y="71" width="14" height="15">
<g id="clip-path-5">
<path id="Vector_118" d="M59.097 85.0295C58.6502 85.2428 54.6293 84.776 53.0415 84.776V84.7659C51.3309 84.7659 49.0931 84.9893 47.3825 84.9853C46.7968 84.9853 46.3762 84.7196 46.2213 84.0937C46.0542 83.4357 46.334 82.3811 46.3863 81.9786C46.5581 80.6673 46.6488 79.3466 46.658 78.0241V77.7545C50.4374 75.9533 54.41 73.8181 58.7106 71.2744L58.8314 71.2019C58.8475 72.0492 58.8595 72.8984 58.8314 73.7457C58.7804 76.6198 59.0224 79.4917 59.5538 82.3167C59.7752 83.5081 59.8195 84.6794 59.097 85.0295Z" fill="white"/>
</g>
</mask>
<g mask="url(#mask4_993_4796)">
<g id="Group_5">
<path id="Vector_119" d="M46.9276 71.2019L46.0542 71.5219V71.2019H46.9276Z" fill="#03842E"/>
<path id="Vector_120" d="M50.0369 71.2019L46.0542 72.6529V71.5219L46.9276 71.2019H50.0369Z" fill="#03842E"/>
<path id="Vector_121" d="M53.1441 71.2019L46.0542 73.7859V72.6529L50.0369 71.2019H53.1441Z" fill="#03842E"/>
<path id="Vector_122" d="M56.2534 71.2019L46.0542 74.9169V73.7859L53.1441 71.2019H56.2534Z" fill="#03842E"/>
<path id="Vector_123" d="M59.1895 71.2019L59.2097 71.2583L46.0542 76.0479V74.9169L56.2534 71.2019H59.1895Z" fill="#03842E"/>
<path id="Vector_124" d="M59.2097 71.2583L59.5739 72.2564L46.0542 77.1809V76.0479L59.2097 71.2583Z" fill="#03842E"/>
<path id="Vector_125" d="M59.5739 72.2564L59.8194 72.9306V73.2989L46.0542 78.3119V77.1809L59.5739 72.2564Z" fill="#03842E"/>
<path id="Vector_126" d="M59.8194 74.4319L46.0542 79.4429V78.3119L59.8194 73.2989V74.4319Z" fill="#03842E"/>
<path id="Vector_127" d="M59.8194 75.5629L46.0542 80.5759V79.4429L59.8194 74.4319V75.5629Z" fill="#03842E"/>
<path id="Vector_128" d="M59.8194 76.6959L46.0542 81.707V80.576L59.8194 75.5629V76.6959Z" fill="#03842E"/>
<path id="Vector_129" d="M59.8194 77.8269L46.0542 82.84V81.707L59.8194 76.6959V77.8269Z" fill="#03842E"/>
<path id="Vector_130" d="M59.8194 78.9599L46.0542 83.971V82.84L59.8194 77.8269V78.9599Z" fill="#03842E"/>
<path id="Vector_131" d="M59.8194 80.0909L46.1468 85.0698L46.0542 84.8122V83.971L59.8194 78.9599V80.0909Z" fill="#03842E"/>
<path id="Vector_132" d="M59.8194 81.2219L48.777 85.2428H46.2111L46.1467 85.0698L59.8194 80.0909V81.2219Z" fill="#03842E"/>
<path id="Vector_133" d="M59.8195 82.355L51.8864 85.2429H48.7771L59.8195 81.222V82.355Z" fill="#03842E"/>
<path id="Vector_134" d="M59.8194 83.486L54.9935 85.2428H51.8862L59.8194 82.355V83.486Z" fill="#03842E"/>
<path id="Vector_135" d="M59.8195 84.619L58.1029 85.2428H54.9937L59.8195 83.486V84.619Z" fill="#03842E"/>
<path id="Vector_136" d="M58.1028 85.2429L59.8194 84.619V85.2429H58.1028Z" fill="#03842E"/>
</g>
</g>
</g>
<g id="Clip path group_6">
<mask id="mask5_993_4796" style="mask-type:luminance" maskUnits="userSpaceOnUse" x="32" y="61" width="13" height="15">
<g id="clip-path-6">
<path id="Vector_137" d="M32.3473 63.1541C32.3473 62.8401 32.1924 61.9667 33.271 61.8741C34.4302 61.7755 36.34 62.0613 38.1875 62.0392C40.6729 62.007 42.6672 61.7272 43.3112 61.8621C44.1585 62.0371 44.4764 62.9025 44.5388 63.7015C44.6233 64.8304 44.6092 65.9675 44.6052 67.1025C44.6052 68.31 44.6052 69.4148 44.6052 70.4211C41.2633 72.0453 37.8303 73.4752 34.3236 74.7036C33.7621 74.8887 33.1 75.1061 32.3996 75.3073C32.3936 70.3043 32.3634 69.8395 32.3473 63.1541Z" fill="white"/>
</g>
</mask>
<g mask="url(#mask5_993_4796)">
<g id="Group_6">
<path id="Vector_138" d="M32.5405 61.7292L32.1924 61.854V61.7292H32.5405Z" fill="#03842E"/>
<path id="Vector_139" d="M35.6478 61.7292L32.1924 62.987V61.854L32.5405 61.7292H35.6478Z" fill="#03842E"/>
<path id="Vector_140" d="M38.757 61.7292L32.1924 64.118V62.987L35.6478 61.7292H38.757Z" fill="#03842E"/>
<path id="Vector_141" d="M41.8643 61.7292L32.1924 65.251V64.118L38.757 61.7292H41.8643Z" fill="#03842E"/>
<path id="Vector_142" d="M44.408 61.7292L44.4744 61.9104L32.1924 66.3821V65.251L41.8643 61.7292H44.408Z" fill="#03842E"/>
<path id="Vector_143" d="M44.4744 61.9104L44.6234 62.3189V62.987L32.1924 67.5151V66.3821L44.4744 61.9104Z" fill="#03842E"/>
<path id="Vector_144" d="M44.6234 64.118L32.1924 68.6461V67.5151L44.6234 62.987V64.118Z" fill="#03842E"/>
<path id="Vector_145" d="M44.6234 65.251L32.1924 69.7771V68.6461L44.6234 64.118V65.251Z" fill="#03842E"/>
<path id="Vector_146" d="M44.6234 66.3821L32.1924 70.9101V69.7771L44.6234 65.2511V66.3821Z" fill="#03842E"/>
<path id="Vector_147" d="M44.6234 67.5151L32.1924 72.0411V70.9101L44.6234 66.382V67.5151Z" fill="#03842E"/>
<path id="Vector_148" d="M44.6234 68.6461L32.1924 73.1741V72.0411L44.6234 67.5151V68.6461Z" fill="#03842E"/>
<path id="Vector_149" d="M44.6234 69.7791L32.1924 74.3051V73.1741L44.6234 68.6461V69.7791Z" fill="#03842E"/>
<path id="Vector_150" d="M44.6234 70.9101L32.5305 75.3134H32.1924V74.3051L44.6234 69.7791V70.9101Z" fill="#03842E"/>
<path id="Vector_151" d="M44.6234 72.0411L35.6398 75.3134H32.5305L44.6234 70.9101V72.0411Z" fill="#03842E"/>
<path id="Vector_152" d="M44.6233 73.1741L38.7469 75.3134H35.6396L44.6233 72.0411V73.1741Z" fill="#03842E"/>
<path id="Vector_153" d="M44.6235 74.3051L41.8563 75.3134H38.7471L44.6235 73.1741V74.3051Z" fill="#03842E"/>
<path id="Vector_154" d="M41.8562 75.3134L44.6233 74.3051V75.3134H41.8562Z" fill="#03842E"/>
</g>
</g>
</g>
<g id="Clip path group_7">
<mask id="mask6_993_4796" style="mask-type:luminance" maskUnits="userSpaceOnUse" x="31" y="78" width="15" height="8">
<g id="clip-path-7">
<path id="Vector_155" d="M44.8325 85.0295C44.3878 85.2428 40.3649 84.7759 38.777 84.7759V84.7659C37.0664 84.7659 34.8306 84.9893 33.118 84.9852C32.8482 85.0076 32.5799 84.9286 32.3652 84.7638C32.1505 84.599 32.0049 84.3601 31.9568 84.0937C31.8971 83.7887 31.8882 83.4759 31.9306 83.168C33.8385 82.8057 35.5873 82.2221 37.2999 81.6486H37.316C39.3284 80.9523 41.52 80.0829 43.6492 79.137C44.0235 78.974 44.3978 78.805 44.7742 78.6339C44.8969 79.8696 45.074 81.0972 45.2974 82.3207C45.5148 83.5081 45.555 84.6793 44.8325 85.0295Z" fill="white"/>
</g>
</mask>
<g mask="url(#mask6_993_4796)">
<g id="Group_7">
<path id="Vector_156" d="M32.7457 78.6319L31.8904 78.9418V78.6319H32.7457Z" fill="#03842E"/>
<path id="Vector_157" d="M35.8529 78.6319L31.8904 80.0749V78.9418L32.7457 78.6319H35.8529Z" fill="#03842E"/>
<path id="Vector_158" d="M38.9622 78.6319L31.8904 81.2059V80.0749L35.8529 78.6319H38.9622Z" fill="#03842E"/>
<path id="Vector_159" d="M42.0694 78.6319L31.8904 82.3389V81.2059L38.9622 78.6319H42.0694Z" fill="#03842E"/>
<path id="Vector_160" d="M45.1344 78.6319L45.1384 78.646L31.8904 83.4699V82.3389L42.0694 78.6319H45.1344Z" fill="#03842E"/>
<path id="Vector_161" d="M45.1384 78.646L45.5027 79.6442L31.8904 84.6009V83.4699L45.1384 78.646Z" fill="#03842E"/>
<path id="Vector_162" d="M45.5027 79.6442L45.555 79.7891V80.7571L33.2347 85.2428H31.9467L31.8904 85.0859V84.6009L45.5027 79.6442Z" fill="#03842E"/>
<path id="Vector_163" d="M45.5549 81.8901L36.3439 85.2428H33.2346L45.5549 80.7571V81.8901Z" fill="#03842E"/>
<path id="Vector_164" d="M45.555 83.0211L39.4532 85.2429H36.344L45.555 81.8901V83.0211Z" fill="#03842E"/>
<path id="Vector_165" d="M45.5549 84.1521L42.5604 85.2428H39.4531L45.5549 83.0211V84.1521Z" fill="#03842E"/>
<path id="Vector_166" d="M42.5605 85.2429L45.5551 84.1521V85.2429H42.5605Z" fill="#03842E"/>
</g>
</g>
</g>
<g id="Clip path group_8">
<mask id="mask7_993_4796" style="mask-type:luminance" maskUnits="userSpaceOnUse" x="32" y="25" width="14" height="36">
<g id="clip-path-8">
<path id="Vector_167" d="M32.9633 49.0628C32.9633 50.7553 32.8506 54.2952 32.6413 55.9676C32.5225 56.9174 32.0798 58.4469 32.0375 58.6924C31.947 59.2962 32.277 60.0428 32.8687 60.1132C33.3724 60.1481 33.8778 60.1529 34.3821 60.1273C34.7705 60.1273 43.0839 60.1092 43.4683 60.1575C44.4846 60.2883 45.0783 59.8013 45.2212 58.7951C45.4727 57.0362 45.1185 55.3296 44.8549 53.611C44.6504 52.34 44.6146 51.0476 44.7482 49.7672C44.7835 49.3173 44.7936 48.8658 44.7784 48.4148C44.7583 41.3551 44.7362 34.296 44.712 27.2377C44.712 26.8493 44.712 26.4608 44.7402 26.0745C44.7684 25.6881 44.555 25.5552 44.2532 25.6941C43.9728 25.8123 43.7335 26.0103 43.5649 26.2636C43.1886 26.9358 34.3338 35.6457 33.6435 36.5272C32.8385 37.5334 32.4239 38.2901 32.4219 39.4231C32.4219 41.3651 32.9733 47.1349 32.9633 49.0628Z" fill="white"/>
</g>
</mask>
<g mask="url(#mask7_993_4796)">
<g id="Group_8">
<path id="Vector_168" d="M32.416 25.5552L31.9531 25.7243V25.5552H32.416Z" fill="#03842E"/>
<path id="Vector_169" d="M35.5232 25.5552L31.9531 26.8553V25.7243L32.416 25.5552H35.5232Z" fill="#03842E"/>
<path id="Vector_170" d="M38.6325 25.5552L31.9531 27.9883V26.8553L35.5232 25.5552H38.6325Z" fill="#03842E"/>
<path id="Vector_171" d="M41.7397 25.5552L31.9531 29.1193V27.9883L38.6325 25.5552H41.7397Z" fill="#03842E"/>
<path id="Vector_172" d="M44.849 25.5552L31.9531 30.2503V29.1193L41.7397 25.5552H44.849Z" fill="#03842E"/>
<path id="Vector_173" d="M45.0704 25.5552L45.4084 26.483L31.9531 31.3833V30.2503L44.849 25.5552H45.0704Z" fill="#03842E"/>
<path id="Vector_174" d="M45.4084 26.483L45.4789 26.6762V27.5898L31.9531 32.5143V31.3833L45.4084 26.483Z" fill="#03842E"/>
<path id="Vector_175" d="M45.4789 28.7208L31.9531 33.6474V32.5143L45.4789 27.5898V28.7208Z" fill="#03842E"/>
<path id="Vector_176" d="M45.4789 29.8539L31.9531 34.7784V33.6474L45.4789 28.7208V29.8539Z" fill="#03842E"/>
<path id="Vector_177" d="M45.4789 30.9849L31.9531 35.9094V34.7784L45.4789 29.8539V30.9849Z" fill="#03842E"/>
<path id="Vector_178" d="M45.4789 32.1159L31.9531 37.0424V35.9094L45.4789 30.9849V32.1159Z" fill="#03842E"/>
<path id="Vector_179" d="M45.4789 33.2489L31.9531 38.1734V37.0424L45.4789 32.1159V33.2489Z" fill="#03842E"/>
<path id="Vector_180" d="M45.4789 34.3799L31.9531 39.3064V38.1734L45.4789 33.2489V34.3799Z" fill="#03842E"/>
<path id="Vector_181" d="M45.4789 35.5129L31.9531 40.4374V39.3064L45.4789 34.3799V35.5129Z" fill="#03842E"/>
<path id="Vector_182" d="M45.4789 36.6439L31.9531 41.5704V40.4374L45.4789 35.5129V36.6439Z" fill="#03842E"/>
<path id="Vector_183" d="M45.4789 37.7749L31.9531 42.7014V41.5704L45.4789 36.6439V37.7749Z" fill="#03842E"/>
<path id="Vector_184" d="M45.4789 38.9079L31.9531 43.8324V42.7014L45.4789 37.7749V38.9079Z" fill="#03842E"/>
<path id="Vector_185" d="M45.4789 40.0389L31.9531 44.9654V43.8324L45.4789 38.9079V40.0389Z" fill="#03842E"/>
<path id="Vector_186" d="M45.4789 41.1719L31.9531 46.0964V44.9654L45.4789 40.0389V41.1719Z" fill="#03842E"/>
<path id="Vector_187" d="M45.4789 42.3029L31.9531 47.2274V46.0964L45.4789 41.1719V42.3029Z" fill="#03842E"/>
<path id="Vector_188" d="M45.4789 43.434L31.9531 48.3605V47.2274L45.4789 42.303V43.434Z" fill="#03842E"/>
<path id="Vector_189" d="M45.4789 44.567L31.9531 49.4915V48.3605L45.4789 43.434V44.567Z" fill="#03842E"/>
<path id="Vector_190" d="M45.4789 45.698L31.9531 50.6245V49.4915L45.4789 44.567V45.698Z" fill="#03842E"/>
<path id="Vector_191" d="M45.4789 46.831L31.9531 51.7555V50.6245L45.4789 45.698V46.831Z" fill="#03842E"/>
<path id="Vector_192" d="M45.4789 47.962L31.9531 52.8865V51.7555L45.4789 46.831V47.962Z" fill="#03842E"/>
<path id="Vector_193" d="M45.4789 49.093L31.9531 54.0195V52.8865L45.4789 47.962V49.093Z" fill="#03842E"/>
<path id="Vector_194" d="M45.4789 50.226L31.9531 55.1505V54.0195L45.4789 49.093V50.226Z" fill="#03842E"/>
<path id="Vector_195" d="M45.4789 51.357L31.9531 56.2835V55.1505L45.4789 50.226V51.357Z" fill="#03842E"/>
<path id="Vector_196" d="M45.4789 52.49L31.9531 57.4145V56.2835L45.4789 51.357V52.49Z" fill="#03842E"/>
<path id="Vector_197" d="M45.4789 53.621L31.9531 58.5475V57.4145L45.4789 52.49V53.621Z" fill="#03842E"/>
<path id="Vector_198" d="M45.4789 54.752L31.9531 59.6785V58.5475L45.4789 53.621V54.752Z" fill="#03842E"/>
<path id="Vector_199" d="M45.4789 55.8851L33.384 60.2883H31.9572L31.9531 60.2783V59.6785L45.4789 54.752V55.8851Z" fill="#03842E"/>
<path id="Vector_200" d="M45.4789 57.0161L36.4933 60.2883H33.384L45.4789 55.8851V57.0161Z" fill="#03842E"/>
<path id="Vector_201" d="M45.4788 58.1491L39.6004 60.2883H36.4932L45.4788 57.0161V58.1491Z" fill="#03842E"/>
<path id="Vector_202" d="M45.479 59.2801L42.7098 60.2883H39.6006L45.479 58.1491V59.2801Z" fill="#03842E"/>
<path id="Vector_203" d="M42.7097 60.2883L45.4789 59.2801V60.2883H42.7097Z" fill="#03842E"/>
</g>
</g>
</g>
<g id="Clip path group_9">
<mask id="mask8_993_4796" style="mask-type:luminance" maskUnits="userSpaceOnUse" x="60" y="80" width="14" height="6">
<g id="clip-path-9">
<path id="Vector_204" d="M61.8139 84.8866C62.0594 84.9128 66.9557 84.7116 68.6281 84.7941C70.0207 84.8625 71.4093 84.9953 72.7999 85.0818C72.978 85.0951 73.1562 85.0597 73.3157 84.9793C73.4751 84.899 73.6097 84.7769 73.705 84.6259C73.8003 84.475 73.8528 84.3009 73.8568 84.1225C73.8608 83.944 73.8161 83.7678 73.7277 83.6127C73.4793 83.213 73.3963 82.7323 73.4962 82.2724C73.6975 81.4071 73.134 80.6625 72.0875 80.7591C70.4936 80.908 69.1151 80.588 67.5051 80.5759C67.4448 80.5759 63.8103 80.7591 62.1761 80.7188C61.2202 80.6947 61.0512 80.8416 60.9465 81.7915C60.8801 82.3952 60.7151 82.9788 60.6104 83.5745C60.4374 84.5687 60.8016 84.9691 61.8139 84.8866Z" fill="white"/>
</g>
</mask>
<g mask="url(#mask8_993_4796)">
<g id="Group_9">
<path id="Vector_205" d="M61.5927 80.5759L60.4375 80.9986V80.5759H61.5927Z" fill="#03842E"/>
<path id="Vector_206" d="M64.7019 80.5759L60.4375 82.1296V80.9986L61.5927 80.5759H64.7019Z" fill="#03842E"/>
<path id="Vector_207" d="M67.8091 80.5759L60.4375 83.2606V82.1296L64.7019 80.5759H67.8091Z" fill="#03842E"/>
<path id="Vector_208" d="M70.9184 80.5759L60.4375 84.3936V83.2606L67.8091 80.5759H70.9184Z" fill="#03842E"/>
<path id="Vector_209" d="M73.758 80.5759L73.7902 80.6625L61.5202 85.1301H60.4375V84.3936L70.9184 80.5759H73.758Z" fill="#03842E"/>
<path id="Vector_210" d="M73.7902 80.6625L74.1062 81.5298V81.6788L64.6295 85.1301H61.5203L73.7902 80.6625Z" fill="#03842E"/>
<path id="Vector_211" d="M74.1061 82.8118L67.7366 85.1301H64.6294L74.1061 81.6788V82.8118Z" fill="#03842E"/>
<path id="Vector_212" d="M74.1063 83.9428L70.8461 85.1302H67.7368L74.1063 82.8118V83.9428Z" fill="#03842E"/>
<path id="Vector_213" d="M70.8459 85.1301L74.1061 83.9428V85.1301H70.8459Z" fill="#03842E"/>
</g>
</g>
</g>
<path id="Vector_214" d="M26.7808 69.5959C26.4467 70.8698 26.1147 72.1679 26.2253 73.4699C26.2823 73.9415 26.4049 74.4028 26.5896 74.8404C26.672 75.0363 26.7863 75.2171 26.9277 75.3757L27.0645 75.5126C27.3405 75.7372 27.6567 75.9073 27.9963 76.0137C28.8013 76.2793 29.7029 76.3115 30.5703 76.3639C29.704 76.7184 28.766 76.8625 27.8333 76.7845C26.7506 76.6677 25.7625 76.0157 25.4304 74.9531C24.9515 73.4076 26.0181 70.9282 26.7808 69.5959Z" fill="#03842E"/>
<path id="Vector_215" d="M82.2987 51.7816L76.3519 50.7613L78.0142 53.1099L76.1024 54.3173C71.4576 57.2354 66.7464 60.1293 62.0151 62.8824C56.6197 66.0178 51.1197 69.0546 45.4988 71.7372C42.0319 73.4251 38.4706 74.9121 34.8328 76.1908C32.6694 76.9052 29.4374 77.9678 27.2297 77.5049C26.2939 77.3218 25.2817 76.5128 24.9617 75.5508C24.213 73.3009 25.1267 71.2522 26.2456 69.0928C26.9661 67.6982 27.7731 66.2553 28.5539 64.8888C26.7206 67.5694 24.5552 70.1635 23.07 73.0856C22.1342 74.8968 21.6009 77.0964 22.6453 79.0384C23.8387 81.232 26.312 81.9605 28.6465 81.9142C31.643 81.8418 34.1144 81.0227 36.805 80.1252C38.8799 79.4067 41.009 78.5534 43.0175 77.6619C48.1432 75.4019 53.0999 72.7334 57.9097 69.8898C62.7195 67.0462 67.3683 64.0114 71.9265 60.8156C74.5004 59.0044 77.0361 57.1489 79.5095 55.1948L81.2865 57.7104L82.2987 51.7816Z" fill="#03842E"/>
<g id="Clip path group_10">
<mask id="mask9_993_4796" style="mask-type:luminance" maskUnits="userSpaceOnUse" x="27" y="43" width="8" height="10">
<g id="clip-path-10">
<path id="Vector_216" d="M30.3188 48.7126C31.6267 50.2807 33.1771 51.6293 34.9112 52.7074C34.1793 50.8017 33.1488 49.0246 31.8583 47.4428C30.5497 45.8754 28.9994 44.5269 27.2659 43.448C27.9973 45.354 29.0279 47.1312 30.3188 48.7126Z" fill="white"/>
</g>
</mask>
<g mask="url(#mask9_993_4796)">
<g id="Group_10">
<path id="Vector_217" d="M27.7972 43.4494L27.2659 43.9042V43.4494H27.7972Z" fill="#03842E"/>
<path id="Vector_218" d="M28.0286 43.4494L27.2659 44.1014V43.9042L27.7972 43.4494H28.0286Z" fill="#03842E"/>
<path id="Vector_219" d="M28.26 43.4494L27.2659 44.2986V44.1014L28.0286 43.4494H28.26Z" fill="#03842E"/>
<path id="Vector_220" d="M28.4894 43.4494L27.2659 44.4979V44.2986L28.26 43.4494H28.4894Z" fill="#03842E"/>
<path id="Vector_221" d="M28.7209 43.4494L27.2659 44.6951V44.4979L28.4894 43.4494H28.7209Z" fill="#03842E"/>
<path id="Vector_222" d="M28.9523 43.4494L27.2659 44.8923V44.6951L28.7209 43.4494H28.9523Z" fill="#03842E"/>
<path id="Vector_223" d="M28.9583 43.4494L29.0529 43.5581L27.2659 45.0916V44.8923L28.9523 43.4494H28.9583Z" fill="#03842E"/>
<path id="Vector_224" d="M29.0529 43.5587L29.1515 43.6734L27.2659 45.2894V45.0922L29.0529 43.5587Z" fill="#03842E"/>
<path id="Vector_225" d="M29.1515 43.6734L29.2502 43.7881L27.2659 45.4867V45.2894L29.1515 43.6734Z" fill="#03842E"/>
<path id="Vector_226" d="M29.2502 43.7881L29.3468 43.9008L27.2659 45.6859V45.4867L29.2502 43.7881Z" fill="#03842E"/>
<path id="Vector_227" d="M29.3468 43.9008L29.4454 44.0156L27.3242 45.8328L27.2659 45.7644V45.6859L29.3468 43.9008Z" fill="#03842E"/>
<path id="Vector_228" d="M29.4436 44.0164L27.3242 45.8329L27.4224 45.9475L29.5418 44.131L29.4436 44.0164Z" fill="#03842E"/>
<path id="Vector_229" d="M29.5415 44.1312L27.4221 45.9477L27.5203 46.0623L29.6397 44.2458L29.5415 44.1312Z" fill="#03842E"/>
<path id="Vector_230" d="M29.6406 44.2467L27.5212 46.0632L27.6195 46.1778L29.7388 44.3613L29.6406 44.2467Z" fill="#03842E"/>
<path id="Vector_231" d="M29.737 44.36L27.6177 46.1765L27.7159 46.2911L29.8352 44.4746L29.737 44.36Z" fill="#03842E"/>
<path id="Vector_232" d="M29.8342 44.4735L27.7148 46.2899L27.8131 46.4045L29.9324 44.5881L29.8342 44.4735Z" fill="#03842E"/>
<path id="Vector_233" d="M29.9318 44.5882L27.8125 46.4047L27.9107 46.5193L30.0301 44.7028L29.9318 44.5882Z" fill="#03842E"/>
<path id="Vector_234" d="M30.0297 44.7022L27.9104 46.5187L28.0086 46.6333L30.128 44.8168L30.0297 44.7022Z" fill="#03842E"/>
<path id="Vector_235" d="M30.1289 44.8157L28.0095 46.6322L28.1077 46.7468L30.2271 44.9303L30.1289 44.8157Z" fill="#03842E"/>
<path id="Vector_236" d="M30.2265 44.9305L28.1072 46.747L28.2054 46.8616L30.3247 45.0451L30.2265 44.9305Z" fill="#03842E"/>
<path id="Vector_237" d="M30.3244 45.0424L28.2051 46.8589L28.3033 46.9735L30.4226 45.157L30.3244 45.0424Z" fill="#03842E"/>
<path id="Vector_238" d="M30.4201 45.1592L28.3008 46.9757L28.399 47.0903L30.5183 45.2738L30.4201 45.1592Z" fill="#03842E"/>
<path id="Vector_239" d="M30.5195 45.2727L28.4001 47.0892L28.4984 47.2038L30.6177 45.3873L30.5195 45.2727Z" fill="#03842E"/>
<path id="Vector_240" d="M30.6174 45.3847L28.498 47.2012L28.5963 47.3158L30.7156 45.4993L30.6174 45.3847Z" fill="#03842E"/>
<path id="Vector_241" d="M30.715 45.4995L28.5957 47.316L28.6939 47.4306L30.8133 45.6141L30.715 45.4995Z" fill="#03842E"/>
<path id="Vector_242" d="M30.8142 45.615L28.6948 47.4315L28.793 47.5461L30.9124 45.7296L30.8142 45.615Z" fill="#03842E"/>
<path id="Vector_243" d="M30.9086 45.7282L28.7893 47.5447L28.8875 47.6593L31.0069 45.8428L30.9086 45.7282Z" fill="#03842E"/>
<path id="Vector_244" d="M31.0078 45.8417L28.8884 47.6582L28.9867 47.7728L31.106 45.9563L31.0078 45.8417Z" fill="#03842E"/>
<path id="Vector_245" d="M31.1054 45.9565L28.9861 47.773L29.0843 47.8876L31.2036 46.0711L31.1054 45.9565Z" fill="#03842E"/>
<path id="Vector_246" d="M31.2033 46.0705L29.084 47.887L29.1822 48.0016L31.3016 46.1851L31.2033 46.0705Z" fill="#03842E"/>
<path id="Vector_247" d="M31.3024 46.184L29.1831 48.0005L29.2813 48.1151L31.4007 46.2986L31.3024 46.184Z" fill="#03842E"/>
<path id="Vector_248" d="M31.3982 46.2988L29.2788 48.1153L29.377 48.2299L31.4964 46.4134L31.3982 46.2988Z" fill="#03842E"/>
<path id="Vector_249" d="M31.4961 46.4107L29.3767 48.2272L29.4749 48.3418L31.5943 46.5253L31.4961 46.4107Z" fill="#03842E"/>
<path id="Vector_250" d="M31.5937 46.5275L29.4744 48.344L29.5726 48.4586L31.6919 46.6421L31.5937 46.5275Z" fill="#03842E"/>
<path id="Vector_251" d="M31.6931 46.641L29.5737 48.4575L29.672 48.5721L31.7913 46.7556L31.6931 46.641Z" fill="#03842E"/>
<path id="Vector_252" d="M31.7895 46.7543L29.6702 48.5708L29.7684 48.6854L31.8877 46.8689L31.7895 46.7543Z" fill="#03842E"/>
<path id="Vector_253" d="M31.8886 46.8698L29.7693 48.6863L29.8675 48.8009L31.9869 46.9844L31.8886 46.8698Z" fill="#03842E"/>
<path id="Vector_254" d="M31.9858 46.9833L29.8665 48.7998L29.9647 48.9144L32.084 47.0979L31.9858 46.9833Z" fill="#03842E"/>
<path id="Vector_255" d="M32.0822 47.0965L29.9629 48.913L30.0611 49.0276L32.1805 47.2111L32.0822 47.0965Z" fill="#03842E"/>
<path id="Vector_256" d="M32.1814 47.21L30.062 49.0265L30.1602 49.1411L32.2796 47.3246L32.1814 47.21Z" fill="#03842E"/>
<path id="Vector_257" d="M32.279 47.3268L30.1597 49.1433L30.2579 49.2579L32.3772 47.4414L32.279 47.3268Z" fill="#03842E"/>
<path id="Vector_258" d="M32.3636 47.4969L30.2422 49.3112L30.3403 49.4259L32.4617 47.6116L32.3636 47.4969Z" fill="#03842E"/>
<path id="Vector_259" d="M32.4741 47.5522L30.3547 49.3687L30.453 49.4833L32.5723 47.6668L32.4741 47.5522Z" fill="#03842E"/>
<path id="Vector_260" d="M32.572 47.667L30.4526 49.4835L30.5509 49.5981L32.6702 47.7816L32.572 47.667Z" fill="#03842E"/>
<path id="Vector_261" d="M32.6711 47.7825L30.5518 49.599L30.65 49.7136L32.7693 47.8971L32.6711 47.7825Z" fill="#03842E"/>
<path id="Vector_262" d="M32.7675 47.8958L30.6482 49.7123L30.7464 49.8269L32.8658 48.0104L32.7675 47.8958Z" fill="#03842E"/>
<path id="Vector_263" d="M32.8667 48.0093L30.7473 49.8258L30.8455 49.9404L32.9649 48.1239L32.8667 48.0093Z" fill="#03842E"/>
<path id="Vector_264" d="M32.9624 48.1241L30.843 49.9406L30.9412 50.0552L33.0606 48.2387L32.9624 48.1241Z" fill="#03842E"/>
<path id="Vector_265" d="M33.0603 48.238L30.9409 50.0545L31.0391 50.1691L33.1585 48.3526L33.0603 48.238Z" fill="#03842E"/>
<path id="Vector_266" d="M33.1594 48.3515L31.04 50.168L31.1383 50.2826L33.2576 48.4661L33.1594 48.3515Z" fill="#03842E"/>
<path id="Vector_267" d="M33.257 48.4663L31.1377 50.2828L31.2359 50.3974L33.3553 48.5809L33.257 48.4663Z" fill="#03842E"/>
<path id="Vector_268" d="M33.3549 48.5783L31.2356 50.3948L31.3338 50.5094L33.4532 48.6929L33.3549 48.5783Z" fill="#03842E"/>
<path id="Vector_269" d="M33.4526 48.6951L31.3333 50.5116L31.4315 50.6262L33.5508 48.8097L33.4526 48.6951Z" fill="#03842E"/>
<path id="Vector_270" d="M33.55 48.8086L31.4307 50.6251L31.5289 50.7397L33.6482 48.9232L33.55 48.8086Z" fill="#03842E"/>
<path id="Vector_271" d="M33.6462 48.9218L31.5269 50.7383L31.6251 50.8529L33.7444 49.0364L33.6462 48.9218Z" fill="#03842E"/>
<path id="Vector_272" d="M33.7456 49.0353L31.6262 50.8518L31.7244 50.9664L33.8438 49.1499L33.7456 49.0353Z" fill="#03842E"/>
<path id="Vector_273" d="M33.8447 49.1508L31.7253 50.9673L31.8236 51.0819L33.9429 49.2654L33.8447 49.1508Z" fill="#03842E"/>
<path id="Vector_274" d="M33.9411 49.2641L31.8218 51.0806L31.92 51.1952L34.0393 49.3787L33.9411 49.2641Z" fill="#03842E"/>
<path id="Vector_275" d="M34.0383 49.3776L31.9189 51.1941L32.0172 51.3087L34.1365 49.4922L34.0383 49.3776Z" fill="#03842E"/>
<path id="Vector_276" d="M34.1359 49.4924L32.0166 51.3089L32.1148 51.4235L34.2342 49.607L34.1359 49.4924Z" fill="#03842E"/>
<path id="Vector_277" d="M34.2338 49.6063L32.1145 51.4228L32.2127 51.5374L34.3321 49.7209L34.2338 49.6063Z" fill="#03842E"/>
<path id="Vector_278" d="M34.3315 49.7211L32.2122 51.5376L32.3104 51.6522L34.4297 49.8357L34.3315 49.7211Z" fill="#03842E"/>
<path id="Vector_279" d="M34.4309 49.8346L32.3115 51.6511L32.4097 51.7657L34.5291 49.9492L34.4309 49.8346Z" fill="#03842E"/>
<path id="Vector_280" d="M34.5266 49.9466L32.4072 51.7631L32.5055 51.8777L34.6248 50.0612L34.5266 49.9466Z" fill="#03842E"/>
<path id="Vector_281" d="M34.6242 50.0634L32.5049 51.8799L32.6031 51.9945L34.7224 50.178L34.6242 50.0634Z" fill="#03842E"/>
<path id="Vector_282" d="M34.7236 50.1769L32.6042 51.9933L32.7025 52.1079L34.8218 50.2915L34.7236 50.1769Z" fill="#03842E"/>
<path id="Vector_283" d="M34.8205 50.2884L34.9111 50.393V50.4112L32.8 52.2204L32.7014 52.1057L34.8205 50.2884Z" fill="#03842E"/>
<path id="Vector_284" d="M34.9111 50.6084L32.8966 52.3331L32.8 52.2204L34.9111 50.4112V50.6084Z" fill="#03842E"/>
<path id="Vector_285" d="M34.9112 50.8056L32.9953 52.4478L32.8967 52.3331L34.9112 50.6084V50.8056Z" fill="#03842E"/>
<path id="Vector_286" d="M34.9112 51.0048L33.092 52.5625L32.9954 52.4478L34.9112 50.8056V51.0048Z" fill="#03842E"/>
<path id="Vector_287" d="M34.9113 51.2021L33.1907 52.6772L33.092 52.5625L34.9113 51.0048V51.2021Z" fill="#03842E"/>
<path id="Vector_288" d="M34.9113 51.3993L33.3839 52.7074H33.2188L33.1907 52.6772L34.9113 51.2021V51.3993Z" fill="#03842E"/>
<path id="Vector_289" d="M34.9112 51.5965L33.6152 52.7074H33.3838L34.9112 51.3993V51.5965Z" fill="#03842E"/>
<path id="Vector_290" d="M34.9113 51.7957L33.8447 52.7074H33.6152L34.9113 51.5965V51.7957Z" fill="#03842E"/>
<path id="Vector_291" d="M33.8447 52.7074L34.9113 51.7957V52.7074H33.8447Z" fill="#03842E"/>
</g>
</g>
</g>
<g id="Clip path group_11">
<mask id="mask10_993_4796" style="mask-type:luminance" maskUnits="userSpaceOnUse" x="71" y="65" width="7" height="11">
<g id="clip-path-11">
<path id="Vector_292" d="M73.8303 69.769C72.8247 71.5451 72.1093 73.4705 71.7112 75.4723C74.8015 72.7577 76.9031 69.0939 77.6862 65.0558C76.1587 66.4121 74.857 68.0031 73.8303 69.769Z" fill="white"/>
</g>
</mask>
<g mask="url(#mask10_993_4796)">
<g id="Group_11">
<path id="Vector_293" d="M77.6821 65.7039L76.6155 65.0579H77.6821V65.7039Z" fill="#03842E"/>
<path id="Vector_294" d="M77.6822 65.8709L76.3398 65.0579H76.6156L77.6822 65.7039V65.8709Z" fill="#03842E"/>
<path id="Vector_295" d="M77.6821 66.0379L76.1606 65.1162L76.1969 65.0579H76.3398L77.6821 65.8709V66.0379Z" fill="#03842E"/>
<path id="Vector_296" d="M77.6821 66.205L76.0862 65.239L76.1606 65.1162L77.6821 66.0379V66.205Z" fill="#03842E"/>
<path id="Vector_297" d="M77.6822 66.372L76.0139 65.3617L76.0864 65.239L77.6822 66.205V66.372Z" fill="#03842E"/>
<path id="Vector_298" d="M77.6822 66.541L75.9395 65.4845L76.0139 65.3617L77.6822 66.372V66.541Z" fill="#03842E"/>
<path id="Vector_299" d="M77.6822 66.7081L75.865 65.6073L75.9395 65.4845L77.6822 66.541V66.7081Z" fill="#03842E"/>
<path id="Vector_300" d="M77.6822 66.8751L75.7905 65.73L75.865 65.6073L77.6822 66.7081V66.8751Z" fill="#03842E"/>
<path id="Vector_301" d="M77.6822 67.0421L75.7161 65.8508L75.7905 65.73L77.6822 66.8751V67.0421Z" fill="#03842E"/>
<path id="Vector_302" d="M77.6822 67.2112L75.6416 65.9735L75.7161 65.8508L77.6822 67.0421V67.2112Z" fill="#03842E"/>
<path id="Vector_303" d="M77.6822 67.3782L75.5671 66.0963L75.6416 65.9735L77.6822 67.2112V67.3782Z" fill="#03842E"/>
<path id="Vector_304" d="M77.6822 67.5453L75.4927 66.219L75.5671 66.0963L77.6822 67.3782V67.5453Z" fill="#03842E"/>
<path id="Vector_305" d="M77.6822 67.7123L75.4182 66.3418L75.4927 66.2191L77.6822 67.5453V67.7123Z" fill="#03842E"/>
<path id="Vector_306" d="M77.6822 67.8793L75.3457 66.4646L75.4181 66.3418L77.6822 67.7123V67.8793Z" fill="#03842E"/>
<path id="Vector_307" d="M77.6822 68.0484L75.2712 66.5873L75.3457 66.4646L77.6822 67.8793V68.0484Z" fill="#03842E"/>
<path id="Vector_308" d="M77.6822 68.0685L77.6158 68.1752L75.1968 66.7101L75.2712 66.5873L77.6822 68.0484V68.0685Z" fill="#03842E"/>
<path id="Vector_309" d="M75.1949 66.7062L75.1208 66.8284L77.5409 68.2946L77.6149 68.1724L75.1949 66.7062Z" fill="#03842E"/>
<path id="Vector_310" d="M75.1204 66.8295L75.0464 66.9517L77.4664 68.4179L77.5404 68.2957L75.1204 66.8295Z" fill="#03842E"/>
<path id="Vector_311" d="M75.046 66.9528L74.9719 67.075L77.3919 68.5412L77.466 68.4189L75.046 66.9528Z" fill="#03842E"/>
<path id="Vector_312" d="M74.9717 67.073L74.8977 67.1952L77.3177 68.6614L77.3918 68.5392L74.9717 67.073Z" fill="#03842E"/>
<path id="Vector_313" d="M74.8973 67.1962L74.8232 67.3185L77.2433 68.7846L77.3173 68.6624L74.8973 67.1962Z" fill="#03842E"/>
<path id="Vector_314" d="M74.824 67.3178L74.75 67.44L77.17 68.9062L77.2441 68.784L74.824 67.3178Z" fill="#03842E"/>
<path id="Vector_315" d="M74.7496 67.4411L74.6755 67.5633L77.0956 69.0295L77.1696 68.9073L74.7496 67.4411Z" fill="#03842E"/>
<path id="Vector_316" d="M74.6751 67.5623L74.6011 67.6845L77.0211 69.1507L77.0951 69.0285L74.6751 67.5623Z" fill="#03842E"/>
<path id="Vector_317" d="M74.6006 67.6856L74.5266 67.8078L76.9466 69.274L77.0207 69.1518L74.6006 67.6856Z" fill="#03842E"/>
<path id="Vector_318" d="M74.5281 67.8089L74.4541 67.9311L76.8741 69.3973L76.9482 69.2751L74.5281 67.8089Z" fill="#03842E"/>
<path id="Vector_319" d="M74.8988 67.7017L74.8245 67.8246L77.2579 69.2959L77.3321 69.173L74.8988 67.7017Z" fill="#03842E"/>
<path id="Vector_320" d="M74.3775 68.0544L74.3035 68.1766L76.7235 69.6428L76.7975 69.5206L74.3775 68.0544Z" fill="#03842E"/>
<path id="Vector_321" d="M74.303 68.1756L74.229 68.2978L76.649 69.764L76.7231 69.6418L74.303 68.1756Z" fill="#03842E"/>
<path id="Vector_322" d="M74.6761 68.0684L74.6018 68.1913L77.0352 69.6627L77.1095 69.5398L74.6761 68.0684Z" fill="#03842E"/>
<path id="Vector_323" d="M74.157 68.4205L74.083 68.5427L76.503 70.0089L76.5771 69.8867L74.157 68.4205Z" fill="#03842E"/>
<path id="Vector_324" d="M74.5301 68.3161L74.4558 68.439L76.8892 69.9103L76.9635 69.7875L74.5301 68.3161Z" fill="#03842E"/>
<path id="Vector_325" d="M74.4561 68.4379L74.3818 68.5608L76.8152 70.0322L76.8895 69.9093L74.4561 68.4379Z" fill="#03842E"/>
<path id="Vector_326" d="M74.3819 68.5618L74.3076 68.6847L76.741 70.156L76.8153 70.0331L74.3819 68.5618Z" fill="#03842E"/>
<path id="Vector_327" d="M74.3079 68.6856L74.2336 68.8085L76.667 70.2799L76.7413 70.157L74.3079 68.6856Z" fill="#03842E"/>
<path id="Vector_328" d="M73.783 69.0338L73.709 69.156L76.129 70.6222L76.203 70.4999L73.783 69.0338Z" fill="#03842E"/>
<path id="Vector_329" d="M73.7108 69.157L73.6367 69.2792L76.0567 70.7454L76.1308 70.6232L73.7108 69.157Z" fill="#03842E"/>
<path id="Vector_330" d="M73.6363 69.2783L73.5623 69.4005L75.9823 70.8667L76.0563 70.7445L73.6363 69.2783Z" fill="#03842E"/>
<path id="Vector_331" d="M73.5628 69.3998L73.4888 69.522L75.9088 70.9882L75.9828 70.866L73.5628 69.3998Z" fill="#03842E"/>
<path id="Vector_332" d="M73.4883 69.5231L73.4143 69.6453L75.8343 71.1115L75.9084 70.9893L73.4883 69.5231Z" fill="#03842E"/>
<path id="Vector_333" d="M73.4139 69.6464L73.3398 69.7686L75.7599 71.2348L75.8339 71.1126L73.4139 69.6464Z" fill="#03842E"/>
<path id="Vector_334" d="M73.3394 69.7696L73.2654 69.8918L75.6854 71.358L75.7594 71.2358L73.3394 69.7696Z" fill="#03842E"/>
<path id="Vector_335" d="M73.2669 69.8909L73.1929 70.0131L75.6129 71.4793L75.6869 71.3571L73.2669 69.8909Z" fill="#03842E"/>
<path id="Vector_336" d="M73.1907 70.0131L73.1167 70.1353L75.5367 71.6015L75.6108 71.4793L73.1907 70.0131Z" fill="#03842E"/>
<path id="Vector_337" d="M73.1163 70.1364L73.0422 70.2586L75.4623 71.7248L75.5363 71.6026L73.1163 70.1364Z" fill="#03842E"/>
<path id="Vector_338" d="M73.0418 70.2597L72.9678 70.3819L75.3878 71.8481L75.4618 71.7259L73.0418 70.2597Z" fill="#03842E"/>
<path id="Vector_339" d="M72.9683 70.3792L72.8943 70.5014L75.3143 71.9676L75.3883 71.8454L72.9683 70.3792Z" fill="#03842E"/>
<path id="Vector_340" d="M72.8939 70.5025L72.8198 70.6247L75.2398 72.0909L75.3139 71.9687L72.8939 70.5025Z" fill="#03842E"/>
<path id="Vector_341" d="M72.8216 70.6257L72.7476 70.748L75.1676 72.2141L75.2416 72.0919L72.8216 70.6257Z" fill="#03842E"/>
<path id="Vector_342" d="M72.7471 70.749L72.6731 70.8712L75.0931 72.3374L75.1672 72.2152L72.7471 70.749Z" fill="#03842E"/>
<path id="Vector_343" d="M72.6707 70.8712L72.5967 70.9935L75.0167 72.4596L75.0907 72.3374L72.6707 70.8712Z" fill="#03842E"/>
<path id="Vector_344" d="M72.5963 70.9925L72.5222 71.1147L74.9422 72.5809L75.0163 72.4587L72.5963 70.9925Z" fill="#03842E"/>
<path id="Vector_345" d="M72.5218 71.1158L72.4478 71.238L74.8678 72.7042L74.9418 72.582L72.5218 71.1158Z" fill="#03842E"/>
<path id="Vector_346" d="M72.4473 71.239L72.3733 71.3613L74.7933 72.8274L74.8673 72.7052L72.4473 71.239Z" fill="#03842E"/>
<path id="Vector_347" d="M72.3751 71.3623L72.301 71.4845L74.721 72.9507L74.7951 72.8285L72.3751 71.3623Z" fill="#03842E"/>
<path id="Vector_348" d="M72.3016 71.4819L72.2275 71.6041L74.6476 73.0703L74.7216 72.9481L72.3016 71.4819Z" fill="#03842E"/>
<path id="Vector_349" d="M72.2271 71.6051L72.1531 71.7273L74.5731 73.1935L74.6471 73.0713L72.2271 71.6051Z" fill="#03842E"/>
<path id="Vector_350" d="M72.1527 71.7284L72.0786 71.8506L74.4986 73.3168L74.5727 73.1946L72.1527 71.7284Z" fill="#03842E"/>
<path id="Vector_351" d="M72.0765 71.8506L72.0024 71.9728L74.4225 73.439L74.4965 73.3168L72.0765 71.8506Z" fill="#03842E"/>
<path id="Vector_352" d="M72.002 71.9739L71.928 72.0961L74.348 73.5623L74.422 73.4401L72.002 71.9739Z" fill="#03842E"/>
<path id="Vector_353" d="M71.9295 72.0952L71.8555 72.2174L74.2755 73.6836L74.3495 73.5614L71.9295 72.0952Z" fill="#03842E"/>
<path id="Vector_354" d="M71.855 72.2184L71.781 72.3406L74.201 73.8068L74.2751 73.6846L71.855 72.2184Z" fill="#03842E"/>
<path id="Vector_355" d="M74.2026 73.8101L74.1281 73.9328L71.7112 72.4677V72.4617L71.7816 72.345L74.2026 73.8101Z" fill="#03842E"/>
<path id="Vector_356" d="M74.1281 73.9328L74.0537 74.0556L71.7112 72.6348V72.4677L74.1281 73.9328Z" fill="#03842E"/>
<path id="Vector_357" d="M74.0537 74.0556L73.9792 74.1783L71.7112 72.8038V72.6348L74.0537 74.0556Z" fill="#03842E"/>
<path id="Vector_358" d="M73.9792 74.1783L73.9048 74.3011L71.7112 72.9708V72.8038L73.9792 74.1783Z" fill="#03842E"/>
<path id="Vector_359" d="M73.9048 74.3011L73.8303 74.4239L71.7112 73.1379V72.9709L73.9048 74.3011Z" fill="#03842E"/>
<path id="Vector_360" d="M73.8303 74.4239L73.7558 74.5446L71.7112 73.3049V73.1379L73.8303 74.4239Z" fill="#03842E"/>
<path id="Vector_361" d="M73.7558 74.5446L73.6834 74.6674L71.7112 73.474V73.3049L73.7558 74.5446Z" fill="#03842E"/>
<path id="Vector_362" d="M73.6834 74.6674L73.6089 74.7901L71.7112 73.641V73.474L73.6834 74.6674Z" fill="#03842E"/>
<path id="Vector_363" d="M73.6089 74.7901L73.5345 74.9129L71.7112 73.808V73.641L73.6089 74.7901Z" fill="#03842E"/>
<path id="Vector_364" d="M73.5345 74.9129L73.46 75.0356L71.7112 73.9751V73.808L73.5345 74.9129Z" fill="#03842E"/>
<path id="Vector_365" d="M73.46 75.0356L73.3855 75.1584L71.7112 74.1421V73.9751L73.46 75.0356Z" fill="#03842E"/>
<path id="Vector_366" d="M73.3855 75.1584L73.3111 75.2812L71.7112 74.3112V74.1421L73.3855 75.1584Z" fill="#03842E"/>
<path id="Vector_367" d="M73.3111 75.2812L73.1944 75.4744H71.7112V74.3112L73.3111 75.2812Z" fill="#03842E"/>
</g>
</g>
</g>
<g id="Clip path group_12">
<mask id="mask11_993_4796" style="mask-type:luminance" maskUnits="userSpaceOnUse" x="73" y="69" width="6" height="4">
<g id="clip-path-12">
<path id="Vector_368" d="M76.05 70.892C75.1683 71.3941 74.3722 72.0334 73.6914 72.7857C75.7013 72.4136 77.5309 71.3852 78.8936 69.8616C77.8971 70.052 76.9372 70.3998 76.05 70.892Z" fill="white"/>
</g>
</mask>
<g mask="url(#mask11_993_4796)">
<g id="Group_12">
<path id="Vector_369" d="M78.8956 69.9542L78.7427 69.8636H78.8956V69.9542Z" fill="#03842E"/>
<path id="Vector_370" d="M78.8957 70.1232L78.467 69.8636H78.7428L78.8957 69.9542V70.1232Z" fill="#03842E"/>
<path id="Vector_371" d="M78.8956 70.2903L78.1892 69.8636H78.4669L78.8956 70.1232V70.2903Z" fill="#03842E"/>
<path id="Vector_372" d="M78.8957 70.4573L77.9136 69.8636H78.1893L78.8957 70.2903V70.4573Z" fill="#03842E"/>
<path id="Vector_373" d="M78.8957 70.5136L78.8454 70.5962L77.6379 69.8636H77.9136L78.8957 70.4573V70.5136Z" fill="#03842E"/>
<path id="Vector_374" d="M78.8453 70.5962L78.7708 70.7189L77.3601 69.8636H77.6378L78.8453 70.5962Z" fill="#03842E"/>
<path id="Vector_375" d="M78.7709 70.7189L78.6985 70.8397L77.0845 69.8636H77.3602L78.7709 70.7189Z" fill="#03842E"/>
<path id="Vector_376" d="M78.6983 70.8397L78.6238 70.9624L76.8086 69.8636H77.0843L78.6983 70.8397Z" fill="#03842E"/>
<path id="Vector_377" d="M78.624 70.9624L78.5495 71.0852L76.531 69.8636H76.8087L78.624 70.9624Z" fill="#03842E"/>
<path id="Vector_378" d="M78.5496 71.0852L78.4751 71.2079L76.2554 69.8636H76.5311L78.5496 71.0852Z" fill="#03842E"/>
<path id="Vector_379" d="M78.475 71.2079L78.4005 71.3307L75.9775 69.8636H76.2553L78.475 71.2079Z" fill="#03842E"/>
<path id="Vector_380" d="M78.4006 71.3307L78.3262 71.4535L75.7019 69.8636H75.9776L78.4006 71.3307Z" fill="#03842E"/>
<path id="Vector_381" d="M78.326 71.4535L78.2515 71.5762L75.426 69.8636H75.7017L78.326 71.4535Z" fill="#03842E"/>
<path id="Vector_382" d="M78.2517 71.5762L78.1792 71.699L75.1484 69.8636H75.4262L78.2517 71.5762Z" fill="#03842E"/>
<path id="Vector_383" d="M78.1792 71.699L78.1048 71.8197L75.0156 69.9502L75.07 69.8636H75.1484L78.1792 71.699Z" fill="#03842E"/>
<path id="Vector_384" d="M75.0154 69.9484L74.9414 70.0706L78.0292 71.9414L78.1033 71.8192L75.0154 69.9484Z" fill="#03842E"/>
<path id="Vector_385" d="M74.942 70.068L74.8679 70.1902L77.9558 72.061L78.0298 71.9388L74.942 70.068Z" fill="#03842E"/>
<path id="Vector_386" d="M74.8675 70.1913L74.7935 70.3135L77.8813 72.1843L77.9553 72.0621L74.8675 70.1913Z" fill="#03842E"/>
<path id="Vector_387" d="M74.7913 70.3135L74.7173 70.4357L77.8051 72.3065L77.8792 72.1843L74.7913 70.3135Z" fill="#03842E"/>
<path id="Vector_388" d="M74.7188 70.4368L74.6448 70.559L77.7326 72.4298L77.8067 72.3076L74.7188 70.4368Z" fill="#03842E"/>
<path id="Vector_389" d="M74.6444 70.558L74.5703 70.6802L77.6582 72.551L77.7322 72.4288L74.6444 70.558Z" fill="#03842E"/>
<path id="Vector_390" d="M74.5699 70.6813L74.4958 70.8035L77.5837 72.6743L77.6577 72.5521L74.5699 70.6813Z" fill="#03842E"/>
<path id="Vector_391" d="M77.5835 72.677L77.517 72.7877H77.4889L74.4219 70.9302L74.4963 70.8075L77.5835 72.677Z" fill="#03842E"/>
<path id="Vector_392" d="M77.2111 72.7877L74.3494 71.053L74.4218 70.9302L77.4888 72.7877H77.2111Z" fill="#03842E"/>
<path id="Vector_393" d="M76.9354 72.7877L74.2749 71.1737L74.3494 71.053L77.2111 72.7877H76.9354Z" fill="#03842E"/>
<path id="Vector_394" d="M76.6597 72.7877L74.2004 71.2965L74.2749 71.1737L76.9354 72.7877H76.6597Z" fill="#03842E"/>
<path id="Vector_395" d="M76.3822 72.7877L74.1262 71.4193L74.2007 71.2965L76.6599 72.7877H76.3822Z" fill="#03842E"/>
<path id="Vector_396" d="M76.1062 72.7877L74.0515 71.542L74.126 71.4193L76.3819 72.7877H76.1062Z" fill="#03842E"/>
<path id="Vector_397" d="M75.8285 72.7877L73.9771 71.6648L74.0515 71.542L76.1062 72.7877H75.8285Z" fill="#03842E"/>
<path id="Vector_398" d="M75.5531 72.7877L73.9028 71.7875L73.9773 71.6648L75.8288 72.7877H75.5531Z" fill="#03842E"/>
<path id="Vector_399" d="M75.2773 72.7877L73.8284 71.9103L73.9028 71.7875L75.5531 72.7877H75.2773Z" fill="#03842E"/>
<path id="Vector_400" d="M74.9996 72.7877L73.7539 72.0331L73.8284 71.9103L75.2773 72.7877H74.9996Z" fill="#03842E"/>
<path id="Vector_401" d="M74.7238 72.7877L73.6914 72.1619V72.1357L73.7538 72.0331L74.9995 72.7877H74.7238Z" fill="#03842E"/>
<path id="Vector_402" d="M74.4481 72.7877L73.6914 72.3289V72.1618L74.7238 72.7877H74.4481Z" fill="#03842E"/>
<path id="Vector_403" d="M74.1704 72.7877L73.6914 72.4959V72.3289L74.4481 72.7877H74.1704Z" fill="#03842E"/>
<path id="Vector_404" d="M73.8947 72.7877L73.6914 72.665V72.4959L74.1704 72.7877H73.8947Z" fill="#03842E"/>
<path id="Vector_405" d="M73.6914 72.665L73.8947 72.7877H73.6914V72.665Z" fill="#03842E"/>
</g>
</g>
</g>
<g id="Clip path group_13">
<mask id="mask12_993_4796" style="mask-type:luminance" maskUnits="userSpaceOnUse" x="26" y="49" width="7" height="2">
<g id="clip-path-13">
<path id="Vector_406" d="M29.8258 49.3687C28.836 49.1459 27.8169 49.0827 26.8071 49.1815C28.544 50.2599 30.5896 50.7313 32.6231 50.5218C31.7579 49.9912 30.8136 49.6019 29.8258 49.3687Z" fill="white"/>
</g>
</mask>
<g mask="url(#mask12_993_4796)">
<g id="Group_13">
<path id="Vector_407" d="M27.0929 48.9984L26.8071 49.2439V49.0467L26.8635 48.9984H27.0929Z" fill="#03842E"/>
<path id="Vector_408" d="M27.3243 48.9984L26.8071 49.4432V49.2439L27.0929 48.9984H27.3243Z" fill="#03842E"/>
<path id="Vector_409" d="M27.5558 48.9984L26.8071 49.6404V49.4432L27.3243 48.9984H27.5558Z" fill="#03842E"/>
<path id="Vector_410" d="M27.7852 48.9984L26.8756 49.7792L26.8071 49.7008V49.6404L27.5558 48.9984H27.7852Z" fill="#03842E"/>
<path id="Vector_411" d="M28.0166 48.9984L26.9721 49.894L26.8755 49.7792L27.7851 48.9984H28.0166Z" fill="#03842E"/>
<path id="Vector_412" d="M28.2481 48.9984L27.0708 50.0087L26.9722 49.894L28.0166 48.9984H28.2481Z" fill="#03842E"/>
<path id="Vector_413" d="M28.4795 48.9984L27.1674 50.1214L27.0708 50.0087L28.2481 48.9984H28.4795Z" fill="#03842E"/>
<path id="Vector_414" d="M28.709 48.9984L27.2661 50.2361L27.1675 50.1214L28.4796 48.9984H28.709Z" fill="#03842E"/>
<path id="Vector_415" d="M28.9402 48.9984L27.3645 50.3508L27.2659 50.2361L28.7088 48.9984H28.9402Z" fill="#03842E"/>
<path id="Vector_416" d="M29.1697 48.9984L27.4611 50.4635L27.3645 50.3508L28.9403 48.9984H29.1697Z" fill="#03842E"/>
<path id="Vector_417" d="M29.4012 48.9984L27.5598 50.5782L27.4612 50.4635L29.1698 48.9984H29.4012Z" fill="#03842E"/>
<path id="Vector_418" d="M29.6327 48.9984L27.6564 50.6929L27.5598 50.5782L29.4012 48.9984H29.6327Z" fill="#03842E"/>
<path id="Vector_419" d="M29.8642 48.9984L27.8718 50.705H27.6686L27.6565 50.6929L29.6327 48.9984H29.8642Z" fill="#03842E"/>
<path id="Vector_420" d="M30.0936 48.9984L28.1033 50.705H27.8718L29.8642 48.9984H30.0936Z" fill="#03842E"/>
<path id="Vector_421" d="M30.325 48.9984L28.3347 50.705H28.1033L30.0936 48.9984H30.325Z" fill="#03842E"/>
<path id="Vector_422" d="M30.5562 48.9984L28.5659 50.705H28.3345L30.3248 48.9984H30.5562Z" fill="#03842E"/>
<path id="Vector_423" d="M30.7857 48.9984L28.7953 50.705H28.5659L30.5562 48.9984H30.7857Z" fill="#03842E"/>
<path id="Vector_424" d="M31.0172 48.9984L29.0268 50.705H28.7954L30.7857 48.9984H31.0172Z" fill="#03842E"/>
<path id="Vector_425" d="M31.2486 48.9984L29.2583 50.705H29.0269L31.0172 48.9984H31.2486Z" fill="#03842E"/>
<path id="Vector_426" d="M31.478 48.9984L29.4877 50.705H29.2583L31.2486 48.9984H31.478Z" fill="#03842E"/>
<path id="Vector_427" d="M31.7096 48.9984L29.7192 50.705H29.4878L31.4781 48.9984H31.7096Z" fill="#03842E"/>
<path id="Vector_428" d="M31.7619 48.9984L31.8384 49.087L29.9507 50.705H29.7192L31.7096 48.9984H31.7619Z" fill="#03842E"/>
<path id="Vector_429" d="M31.8384 49.087L31.935 49.2017L30.1821 50.705H29.9507L31.8384 49.087Z" fill="#03842E"/>
<path id="Vector_430" d="M31.935 49.2017L32.0336 49.3144L30.4115 50.705H30.1821L31.935 49.2017Z" fill="#03842E"/>
<path id="Vector_431" d="M32.0334 49.3144L32.132 49.4291L30.6428 50.705H30.4114L32.0334 49.3144Z" fill="#03842E"/>
<path id="Vector_432" d="M32.132 49.4291L32.2286 49.5438L30.8743 50.705H30.6428L32.132 49.4291Z" fill="#03842E"/>
<path id="Vector_433" d="M32.2287 49.5438L32.3273 49.6585L31.1037 50.705H30.8743L32.2287 49.5438Z" fill="#03842E"/>
<path id="Vector_434" d="M32.3273 49.6585L32.4239 49.7712L31.3352 50.705H31.1038L32.3273 49.6585Z" fill="#03842E"/>
<path id="Vector_435" d="M32.4239 49.7712L32.5226 49.8859L31.5666 50.705H31.3352L32.4239 49.7712Z" fill="#03842E"/>
<path id="Vector_436" d="M32.5226 49.8859L32.6192 49.9986L31.7961 50.705H31.5667L32.5226 49.8859Z" fill="#03842E"/>
<path id="Vector_437" d="M32.6192 49.9986L32.6233 50.0026V50.1938L32.0276 50.705H31.7961L32.6192 49.9986Z" fill="#03842E"/>
<path id="Vector_438" d="M32.623 50.393L32.2588 50.705H32.0273L32.623 50.1938V50.393Z" fill="#03842E"/>
<path id="Vector_439" d="M32.623 50.5903L32.4882 50.705H32.2588L32.623 50.393V50.5903Z" fill="#03842E"/>
</g>
</g>
</g>
</g>
</g>
<g id="Frame 427320855">
<g id="&#233;&#141;&#165;&#230;&#131;&#167;&#231;&#156;&#176;_1_2">
<path id="Vector_440" d="M191.71 17.97H193.84V17.16C190.825 16.9822 187.821 16.6484 184.84 16.16C184.84 16.16 183.6 28.35 177.74 37.84C177.74 37.84 182.17 34.75 187.64 25.64H191.17V56.04H190.75V56.53H196.92V56.04H196.51V25.64H201.86L202.86 23.9H188.65C189.65 22.08 190.68 20.15 191.71 17.97ZM175.5 25.61H180.87L181.87 23.87H170.46C171.46 22.11 172.46 20.15 173.52 17.97H175.65V17.16C172.635 16.9822 169.631 16.6484 166.65 16.16C166.65 16.16 165.41 28.35 159.54 37.84C159.54 37.84 163.97 34.75 169.44 25.64H170.16V32.45H169.74V32.93H175.91V32.45H175.5V25.61ZM169.74 34.44H170.16V56.01H169.74V56.5H175.91V56.01H175.5V34.44H175.91V33.96H169.74V34.44ZM122.74 50.84C123.5 50.0871 124.146 49.2282 124.66 48.29C125.048 47.4718 125.243 46.5754 125.23 45.67V42.32H125.63V41.84H119.47V42.32H119.9V44.58C119.878 45.3312 119.764 46.0768 119.56 46.8L118.21 44.08H118.62V43.6H112.45V44.08H112.87L117.26 50.67C115.531 52.8342 113.551 54.7846 111.36 56.48C114.257 56.0585 117.047 55.0878 119.58 53.62L120.58 54.94H120.17V55.42H126.34V54.94H125.92L122.74 50.84ZM118.2 16.61H118.61V16.13H112.44V16.61H112.86V21.99H110.28V23.73H112.86V42.08H112.44V42.57H118.61V42.08H118.2V23.73H119.89V40.43H119.47V40.91H125.64V40.43H125.23V23.73H127.23V21.99H118.23L118.2 16.61ZM140.2 30.67H140.62V30.19H134.45V30.67H134.87V32.95H128.13V34.69H134.87V56.23H134.45V56.71H140.62V56.23H140.2V34.69H146.94V32.95H140.2V30.67ZM135.09 28.58H134.45V29.08H140.62V28.6H140.43L146.94 20.67H141.6L135.09 28.58ZM128.09 20.25H146.9V18.51H128.18L128.09 20.25ZM249.65 56.25V35.08H223.4L218.17 33.93L216.24 42.53C216.24 42.53 215.13 46.89 213.24 47.46C213.24 47.46 218.42 48.61 221.92 41.75L223.03 36.83H226.15L222.81 51.54C222.81 51.54 221.7 55.91 219.81 56.48C219.81 56.48 224.99 57.62 228.49 50.77L231.66 36.83H235.22L232.03 51.54C232.03 51.54 230.91 55.91 229.03 56.48C229.03 56.48 234.21 57.62 237.72 50.77L240.72 36.83H244.46V56.26H244.04V56.74H250.21V56.26L249.65 56.25ZM223.27 30.91H242.08V32.46H247.42V17.02H242.08V18.02H223.27V17.02H217.93V32.46H223.27V30.91ZM223.27 19.81H242.08V23.43H223.27V19.81ZM223.27 25.17H242.08V29.17H223.27V25.17Z" fill="#03842E"/>
<g id="Frame 427320882">
<path id="Vector_441" d="M157.74 47.43C157.74 47.43 160.36 53.59 158.06 56.5C158.06 56.5 155.64 55.08 157.74 47.43Z" fill="#03842E"/>
<path id="Vector_442" d="M162.74 51.98C162.74 51.98 161.08 56.19 158.59 56.5C158.57 56.5 158.11 54.66 162.74 51.98Z" fill="#03842E"/>
<path id="Vector_443" d="M152.79 52.56C152.79 52.56 157.09 54.01 157.52 56.48C157.57 56.48 155.7 57.08 152.79 52.56Z" fill="#03842E"/>
</g>
<g id="Frame 427320881">
<path id="Vector_444" d="M204.21 47.43C204.21 47.43 206.84 53.59 204.54 56.5C204.57 56.5 202.12 55.08 204.21 47.43Z" fill="#03842E"/>
<path id="Vector_445" d="M209.22 51.98C209.22 51.98 207.56 56.19 205.07 56.5C205.07 56.5 204.57 54.66 209.22 51.98Z" fill="#03842E"/>
<path id="Vector_446" d="M199.27 52.56C199.27 52.56 203.56 54.01 204 56.48C204 56.48 202.18 57.08 199.27 52.56Z" fill="#03842E"/>
</g>
</g>
<path id="&#229;&#180;&#135;&#228;&#185;&#137;&#231;&#171;&#185;&#228;&#186;&#167;&#228;&#184;&#154;&#228;&#186;&#164;&#230;&#152;&#147;&#229;&#185;&#179;&#229;&#143;&#176;" d="M123.648 73.624H112.128V70.792L113.776 70.856V72.312H117.088V70.36L118.72 70.424V72.312H122.016V70.808L123.648 70.872V73.624ZM113.12 78.152H111.488V74.904H117.104C117.061 74.7547 117.013 74.616 116.96 74.488C116.917 74.3493 116.869 74.2053 116.816 74.056L118.496 73.816C118.56 73.9867 118.624 74.1573 118.688 74.328C118.752 74.4987 118.816 74.6907 118.88 74.904H124.192V78.152H122.592V76.28H113.12V78.152ZM113.376 78.68V77.32H122.304V78.68H113.376ZM118.816 81.016V83C118.816 83.32 118.784 83.5813 118.72 83.784C118.656 83.9973 118.544 84.1627 118.384 84.28C118.224 84.408 118.016 84.504 117.76 84.568C117.504 84.632 117.184 84.68 116.8 84.712L115.76 84.808L115.296 83.304L116.272 83.224C116.485 83.2133 116.651 83.192 116.768 83.16C116.896 83.1387 116.992 83.096 117.056 83.032C117.12 82.9787 117.163 82.9093 117.184 82.824C117.205 82.728 117.216 82.6 117.216 82.44V81.016H114.96L115.744 82.168C115.477 82.36 115.168 82.568 114.816 82.792C114.475 83.0053 114.112 83.2187 113.728 83.432C113.355 83.656 112.971 83.8747 112.576 84.088C112.192 84.3013 111.829 84.504 111.488 84.696L110.736 83.256C111.077 83.096 111.429 82.9253 111.792 82.744C112.165 82.5627 112.528 82.376 112.88 82.184C113.232 81.992 113.568 81.8 113.888 81.608C114.219 81.4053 114.512 81.208 114.768 81.016H111.264V79.64H124.448V81.016H118.816ZM120.464 81.08C120.741 81.1867 121.083 81.3307 121.488 81.512C121.904 81.6933 122.325 81.8907 122.752 82.104C123.189 82.3067 123.611 82.5093 124.016 82.712C124.421 82.9147 124.763 83.0907 125.04 83.24L124.464 84.728C124.187 84.5573 123.84 84.36 123.424 84.136C123.019 83.9227 122.592 83.6987 122.144 83.464C121.707 83.24 121.28 83.0267 120.864 82.824C120.448 82.6213 120.091 82.4507 119.792 82.312L120.464 81.08ZM133.846 74.6C133.707 74.3227 133.547 74.008 133.366 73.656C133.185 73.304 132.993 72.9573 132.79 72.616C132.598 72.264 132.406 71.928 132.214 71.608C132.022 71.288 131.857 71.0213 131.718 70.808L133.11 69.96C133.27 70.184 133.446 70.456 133.638 70.776C133.83 71.0853 134.022 71.4053 134.214 71.736C134.406 72.0667 134.593 72.392 134.774 72.712C134.955 73.032 135.11 73.3147 135.238 73.56L133.846 74.6ZM139.894 84.872C138.614 84.2747 137.478 83.6773 136.486 83.08C135.494 82.4827 134.598 81.8427 133.798 81.16C132.998 81.8427 132.086 82.4773 131.062 83.064C130.038 83.6507 128.849 84.248 127.494 84.856L126.534 83.112C127.782 82.6 128.886 82.088 129.846 81.576C130.817 81.064 131.686 80.4933 132.454 79.864C131.985 79.3627 131.553 78.8293 131.158 78.264C130.763 77.6987 130.39 77.0907 130.038 76.44C129.697 75.7893 129.366 75.096 129.046 74.36C128.737 73.6133 128.438 72.808 128.15 71.944L129.718 71.288C130.262 72.9093 130.854 74.3173 131.494 75.512C132.134 76.7067 132.881 77.7573 133.734 78.664C134.555 77.7573 135.243 76.6907 135.798 75.464C136.353 74.2373 136.827 72.7653 137.222 71.048L138.902 71.656C138.667 72.5947 138.417 73.4587 138.15 74.248C137.894 75.0373 137.611 75.768 137.302 76.44C136.993 77.112 136.657 77.736 136.294 78.312C135.931 78.8773 135.526 79.4053 135.078 79.896C135.835 80.504 136.678 81.0587 137.606 81.56C138.534 82.0507 139.585 82.5307 140.758 83L139.894 84.872ZM156.38 74.44H154.092V82.552C154.092 82.904 154.055 83.1973 153.98 83.432C153.916 83.6667 153.804 83.8533 153.644 83.992C153.484 84.1413 153.265 84.248 152.988 84.312C152.721 84.3867 152.391 84.44 151.996 84.472L150.924 84.552L150.444 82.952L151.5 82.888C151.884 82.856 152.156 82.792 152.316 82.696C152.476 82.5893 152.556 82.3547 152.556 81.992V74.44H150.748C150.279 75.368 149.735 76.2693 149.116 77.144L147.772 76.136C147.985 75.8693 148.183 75.5973 148.364 75.32C148.556 75.0427 148.737 74.7493 148.908 74.44H146.316V84.552H144.764V74.792C144.209 75.816 143.633 76.7013 143.036 77.448L141.964 76.104C142.263 75.688 142.567 75.2347 142.876 74.744C143.185 74.2427 143.479 73.7307 143.756 73.208C144.044 72.6747 144.3 72.1413 144.524 71.608C144.759 71.064 144.956 70.5413 145.116 70.04L146.62 70.392C146.503 70.7867 146.369 71.1867 146.22 71.592C146.071 71.9867 145.911 72.3813 145.74 72.776H149.052V74.2C149.404 73.56 149.724 72.8987 150.012 72.216C150.3 71.5227 150.551 70.808 150.764 70.072L152.316 70.424C152.081 71.2347 151.809 72.024 151.5 72.792H156.38V74.44ZM169.058 73.288C168.973 73.704 168.877 74.1573 168.77 74.648C168.663 75.1387 168.551 75.6187 168.434 76.088H171.65V77.64H161.09V78.744C161.09 79.4267 161.053 80.0453 160.978 80.6C160.903 81.144 160.786 81.6613 160.626 82.152C160.466 82.632 160.263 83.096 160.018 83.544C159.773 84.0027 159.479 84.472 159.138 84.952L157.682 84.024C158.045 83.576 158.343 83.16 158.578 82.776C158.823 82.3813 159.015 81.9707 159.154 81.544C159.293 81.1173 159.389 80.6587 159.442 80.168C159.506 79.6667 159.538 79.0853 159.538 78.424V76.088H162.45C162.418 75.8853 162.381 75.656 162.338 75.4C162.306 75.144 162.269 74.8933 162.226 74.648C162.183 74.392 162.141 74.1467 162.098 73.912C162.055 73.6773 162.018 73.4693 161.986 73.288H158.402V71.736H164.722C164.637 71.448 164.551 71.1653 164.466 70.888C164.381 70.6107 164.306 70.3813 164.242 70.2L165.874 69.96C165.949 70.1733 166.039 70.44 166.146 70.76C166.253 71.0693 166.359 71.3947 166.466 71.736H172.13V73.288H169.058ZM166.834 76.088C166.951 75.6613 167.058 75.2027 167.154 74.712C167.261 74.2107 167.357 73.736 167.442 73.288H163.634C163.677 73.4907 163.719 73.72 163.762 73.976C163.805 74.2213 163.847 74.472 163.89 74.728C163.943 74.984 163.986 75.2293 164.018 75.464C164.061 75.6987 164.098 75.9067 164.13 76.088H166.834ZM187.88 82.344V83.944H173.896V82.344H178.36V79.128L176.936 80.024C176.765 79.5333 176.568 78.9947 176.344 78.408C176.12 77.8213 175.885 77.2347 175.64 76.648C175.405 76.0507 175.171 75.48 174.936 74.936C174.701 74.392 174.488 73.9227 174.296 73.528L175.816 72.808C175.987 73.1493 176.184 73.5707 176.408 74.072C176.643 74.5627 176.877 75.0853 177.112 75.64C177.347 76.1947 177.571 76.744 177.784 77.288C178.008 77.832 178.2 78.3227 178.36 78.76V70.248L180.056 70.312V82.344H181.736V70.248L183.4 70.312V78.936C183.645 78.4773 183.891 77.9867 184.136 77.464C184.381 76.9307 184.616 76.3973 184.84 75.864C185.075 75.3307 185.288 74.8133 185.48 74.312C185.683 73.8 185.859 73.3253 186.008 72.888L187.56 73.592C187.411 74.0293 187.219 74.5307 186.984 75.096C186.76 75.6613 186.515 76.2427 186.248 76.84C185.992 77.4267 185.725 78.0027 185.448 78.568C185.181 79.1333 184.931 79.6347 184.696 80.072L183.4 79.368V82.344H187.88ZM203.23 73.608H190.014V72.024H195.966C195.881 71.7147 195.795 71.4107 195.71 71.112C195.625 70.8133 195.55 70.5733 195.486 70.392L197.118 70.152C197.193 70.3547 197.278 70.632 197.374 70.984C197.481 71.3253 197.587 71.672 197.694 72.024H203.23V73.608ZM202.19 78.728C201.923 78.472 201.593 78.1733 201.198 77.832C200.814 77.4907 200.409 77.144 199.982 76.792C199.566 76.44 199.15 76.104 198.734 75.784C198.329 75.4533 197.971 75.1813 197.662 74.968L198.622 73.736C198.91 73.9387 199.257 74.1893 199.662 74.488C200.067 74.7867 200.478 75.1013 200.894 75.432C201.31 75.752 201.715 76.0773 202.11 76.408C202.505 76.728 202.841 77.0107 203.118 77.256L202.19 78.728ZM190.062 77.48C190.851 76.9573 191.603 76.376 192.318 75.736C193.033 75.096 193.673 74.4453 194.238 73.784L195.422 74.888C194.814 75.6027 194.126 76.312 193.358 77.016C192.59 77.7093 191.806 78.3493 191.006 78.936L190.062 77.48ZM203.262 84.888C201.769 84.4507 200.489 84.0027 199.422 83.544C198.355 83.0853 197.417 82.552 196.606 81.944C195.817 82.5413 194.894 83.08 193.838 83.56C192.782 84.0507 191.523 84.536 190.062 85.016L189.374 83.336C190.707 82.9627 191.854 82.5787 192.814 82.184C193.785 81.7787 194.633 81.3253 195.358 80.824C194.537 79.9493 193.779 78.8773 193.086 77.608L194.462 76.776C194.793 77.384 195.134 77.9333 195.486 78.424C195.838 78.9147 196.217 79.3627 196.622 79.768C197.027 79.3627 197.395 78.9147 197.726 78.424C198.057 77.9333 198.361 77.384 198.638 76.776L200.11 77.512C199.79 78.1627 199.449 78.76 199.086 79.304C198.734 79.8373 198.334 80.3333 197.886 80.792C198.633 81.2933 199.486 81.7253 200.446 82.088C201.417 82.4507 202.558 82.792 203.87 83.112L203.262 84.888ZM218.468 77.416C218.457 77.48 218.441 77.6347 218.42 77.88C218.409 78.1253 218.388 78.4187 218.356 78.76C218.324 79.0907 218.292 79.448 218.26 79.832C218.228 80.2053 218.196 80.5573 218.164 80.888C218.132 81.2187 218.105 81.5067 218.084 81.752C218.063 81.9867 218.047 82.1307 218.036 82.184C217.983 82.568 217.897 82.8773 217.78 83.112C217.673 83.3573 217.519 83.5493 217.316 83.688C217.113 83.8373 216.852 83.944 216.532 84.008C216.223 84.072 215.844 84.12 215.396 84.152L214.308 84.232L213.812 82.792L214.788 82.728C215.108 82.696 215.369 82.664 215.572 82.632C215.785 82.6 215.951 82.5467 216.068 82.472C216.196 82.3973 216.287 82.2907 216.34 82.152C216.404 82.0133 216.457 81.8267 216.5 81.592C216.521 81.4533 216.548 81.2453 216.58 80.968C216.623 80.6907 216.66 80.408 216.692 80.12C216.735 79.8213 216.767 79.5493 216.788 79.304C216.82 79.048 216.841 78.872 216.852 78.776H215.252C215.06 79.4373 214.815 80.0507 214.516 80.616C214.228 81.1707 213.876 81.6987 213.46 82.2C213.044 82.6907 212.553 83.1547 211.988 83.592C211.423 84.04 210.772 84.4773 210.036 84.904L209.044 83.672C209.716 83.3093 210.297 82.952 210.788 82.6C211.289 82.248 211.721 81.88 212.084 81.496C212.447 81.112 212.751 80.7013 212.996 80.264C213.252 79.816 213.476 79.32 213.668 78.776H212.02C211.721 79.32 211.38 79.8267 210.996 80.296C210.623 80.7547 210.191 81.192 209.7 81.608C209.209 82.0133 208.649 82.4027 208.02 82.776C207.401 83.1493 206.703 83.5173 205.924 83.88L205.108 82.6C206.473 82.024 207.572 81.4267 208.404 80.808C209.247 80.1893 209.892 79.512 210.34 78.776H208.532C208.212 79.1173 207.865 79.448 207.492 79.768C207.129 80.088 206.729 80.4133 206.292 80.744L205.364 79.544C206.047 79.1067 206.649 78.6267 207.172 78.104C207.705 77.5707 208.164 77.0053 208.548 76.408H207.46V70.68H217.46V76.408H209.476L210.132 76.712C210.047 76.8293 209.967 76.9467 209.892 77.064C209.828 77.1813 209.753 77.2987 209.668 77.416H218.468ZM209.028 71.976V72.968H215.892V71.976H209.028ZM215.892 75.08V74.184H209.028V75.08H215.892ZM235.098 79.64H228.938V84.44H227.306V79.64H221.098V78.04H227.306V72.424H221.898V70.824H234.33V72.424H228.938V78.04H235.098V79.64ZM229.978 76.648C230.17 76.4133 230.383 76.136 230.618 75.816C230.863 75.4853 231.109 75.1493 231.354 74.808C231.599 74.456 231.829 74.12 232.042 73.8C232.255 73.4693 232.426 73.192 232.554 72.968L233.802 73.864C233.663 74.088 233.487 74.3653 233.274 74.696C233.061 75.016 232.831 75.352 232.586 75.704C232.341 76.0453 232.095 76.3867 231.85 76.728C231.615 77.0587 231.402 77.3413 231.21 77.576L229.978 76.648ZM223.626 72.984C223.797 73.2187 223.994 73.4907 224.218 73.8C224.453 74.1093 224.687 74.4293 224.922 74.76C225.157 75.0907 225.386 75.4213 225.61 75.752C225.834 76.072 226.031 76.36 226.202 76.616L225.018 77.608C224.847 77.3413 224.645 77.0373 224.41 76.696C224.186 76.3547 223.951 76.0133 223.706 75.672C223.471 75.32 223.242 74.9893 223.018 74.68C222.794 74.36 222.602 74.0933 222.442 73.88L223.626 72.984ZM246.272 71.416C246.549 71.672 246.869 71.9813 247.232 72.344C247.605 72.7067 247.984 73.0853 248.368 73.48C248.763 73.8747 249.147 74.2747 249.52 74.68C249.893 75.0747 250.224 75.4373 250.512 75.768L249.488 76.952C249.371 76.824 249.243 76.6853 249.104 76.536C248.976 76.376 248.837 76.2107 248.688 76.04C248.389 76.0507 247.957 76.0667 247.392 76.088C246.837 76.0987 246.208 76.1147 245.504 76.136C244.8 76.1573 244.059 76.184 243.28 76.216C242.501 76.248 241.749 76.28 241.024 76.312C240.299 76.344 239.632 76.3813 239.024 76.424C238.416 76.456 237.931 76.488 237.568 76.52L237.168 74.856C237.531 74.792 237.797 74.728 237.968 74.664C238.149 74.5893 238.32 74.488 238.48 74.36C238.736 74.168 239.056 73.896 239.44 73.544C239.824 73.1813 240.213 72.7867 240.608 72.36C241.013 71.9333 241.397 71.496 241.76 71.048C242.133 70.6 242.443 70.1947 242.688 69.832L244.112 70.632C243.845 70.9947 243.547 71.3787 243.216 71.784C242.885 72.1787 242.549 72.5627 242.208 72.936C241.867 73.3093 241.531 73.6507 241.2 73.96C240.88 74.2693 240.603 74.5147 240.368 74.696L247.232 74.472C246.837 74.056 246.459 73.6667 246.096 73.304C245.733 72.9307 245.424 72.6213 245.168 72.376L246.272 71.416ZM238.576 77.784H249.136V84.6H247.504V83.912H240.192V84.6H238.576V77.784ZM240.192 79.336V82.408H247.504V79.336H240.192Z" fill="#03842E"/>
</g>
</g>
<defs>
<clipPath id="clip0_993_4796">
<rect width="98.2222" height="98.2222" fill="white" transform="translate(2.88892 2.88889)"/>
</clipPath>
</defs>
</svg>
