<svg xmlns="http://www.w3.org/2000/svg" width="16" height="16" viewBox="0 0 16 16"><defs><style>.a{opacity:0;}.b{fill:#2263e8;}</style></defs><g transform="translate(-111 -100)"><rect class="a" width="16" height="16" transform="translate(111 100)"/><path class="b" d="M-5693-332a1,1,0,0,1-1-1,1,1,0,0,1,1-1h11a1,1,0,0,1,1,1,1,1,0,0,1-1,1Zm0-4.5a1,1,0,0,1-1-1,1,1,0,0,1,1-1h11a1,1,0,0,1,1,1,1,1,0,0,1-1,1Zm0-4.5a1,1,0,0,1-1-1,1,1,0,0,1,1-1h11a1,1,0,0,1,1,1,1,1,0,0,1-1,1Z" transform="translate(5806.5 445.5)"/></g></svg>