<svg xmlns="http://www.w3.org/2000/svg" width="16" height="16" viewBox="0 0 16 16"><defs><style>.a{opacity:0;}.b{fill:#2263e8;}</style></defs><g transform="translate(22 -100)"><rect class="a" width="16" height="16" transform="translate(-22 100)"/><path class="b" d="M-10,113h-8a.5.5,0,0,0-.5.5.5.5,0,0,0,.5.5h8a.5.5,0,0,0,.5-.5A.5.5,0,0,0-10,113Z"/><path class="b" d="M-9.4,106.646l-4.6-4.6-4.6,4.6a.5.5,0,0,0,0,.708.5.5,0,0,0,.707,0l3.389-3.39v7.786a.5.5,0,0,0,.5.5.5.5,0,0,0,.5-.5v-7.786l3.389,3.39a.5.5,0,0,0,.354.146.5.5,0,0,0,.353-.146A.5.5,0,0,0-9.4,106.646Z"/></g></svg>